<?xml version="1.0" encoding="UTF-8"?>
<svg version="1.1" xmlns="http://www.w3.org/2000/svg" width="580" height="386">
<path d="M0 0 C3.96 0 7.92 0 12 0 C12 45.54 12 91.08 12 138 C8.04 138 4.08 138 0 138 C0 92.46 0 46.92 0 0 Z " fill="#DA405B" transform="translate(339,82)"/>
<path d="M0 0 C3.96 0 7.92 0 12 0 C12 45.54 12 91.08 12 138 C8.04 138 4.08 138 0 138 C0 92.46 0 46.92 0 0 Z " fill="#D92179" transform="translate(229,82)"/>
<path d="M0 0 C3.96 0 7.92 0 12 0 C12 27.06 12 54.12 12 82 C7.71 82 3.42 82 -1 82 C-1.02312343 71.45618688 -1.04091509 60.91237975 -1.05181217 50.36854649 C-1.057041 45.47314626 -1.06413864 40.57776332 -1.07543945 35.68237305 C-1.08626834 30.96212022 -1.09227684 26.24188408 -1.09487724 21.5216198 C-1.09673149 19.71661046 -1.10035209 17.91160208 -1.10573006 16.10659981 C-1.11294052 13.58740356 -1.11399094 11.0682771 -1.11352539 8.54907227 C-1.11712067 7.79525772 -1.12071594 7.04144318 -1.12442017 6.26478577 C-1.11405216 1.11405216 -1.11405216 1.11405216 0 0 Z " fill="#D73E5F" transform="translate(321,89)"/>
<path d="M0 0 C4.29 0 8.58 0 13 0 C13.02312343 10.54381312 13.04091509 21.08762025 13.05181217 31.63145351 C13.057041 36.52685374 13.06413864 41.42223668 13.07543945 46.31762695 C13.08626834 51.03787978 13.09227684 55.75811592 13.09487724 60.4783802 C13.09673149 62.28338954 13.10035209 64.08839792 13.10573006 65.89340019 C13.11294052 68.41259644 13.11399094 70.9317229 13.11352539 73.45092773 C13.11712067 74.20474228 13.12071594 74.95855682 13.12442017 75.73521423 C13.11405216 80.88594784 13.11405216 80.88594784 12 82 C8.04 82 4.08 82 0 82 C0 54.94 0 27.88 0 0 Z " fill="#D92676" transform="translate(247,89)"/>
<path d="M0 0 C3.96 0 7.92 0 12 0 C12 25.74 12 51.48 12 78 C8.04 78 4.08 78 0 78 C0 52.26 0 26.52 0 0 Z " fill="#D6337B" transform="translate(284,142)"/>
<path d="M0 0 C4.29 0 8.58 0 13 0 C13 22.11 13 44.22 13 67 C8.71 67 4.42 67 0 67 C0 44.89 0 22.78 0 0 Z " fill="#DA4A79" transform="translate(302,119)"/>
<path d="M0 0 C3.96 0 7.92 0 12 0 C12 22.11 12 44.22 12 67 C8.04 67 4.08 67 0 67 C-1.81415883 65.18584117 -1.12770573 62.37554299 -1.12939453 59.93554688 C-1.13254669 58.63750122 -1.13569885 57.33945557 -1.13894653 56.0020752 C-1.13715675 54.57429979 -1.1351058 53.14652469 -1.1328125 51.71875 C-1.13348558 50.26525862 -1.13445564 48.81176736 -1.13571167 47.35827637 C-1.13718846 44.30833873 -1.1350347 41.25843034 -1.13037109 38.20849609 C-1.1246738 34.29069441 -1.12795291 30.37296122 -1.13394356 26.45516205 C-1.13754969 23.45269246 -1.13641035 20.45023923 -1.13381577 17.44776917 C-1.13314664 16.00281262 -1.13397442 14.55785461 -1.13629532 13.11289978 C-1.13882265 11.09675117 -1.13429052 9.08059738 -1.12939453 7.06445312 C-1.12859894 5.91497192 -1.12780334 4.76549072 -1.12698364 3.58117676 C-1 1 -1 1 0 0 Z " fill="#D72875" transform="translate(266,119)"/>
<path d="M0 0 C3.96 0 7.92 0 12 0 C12 45.54 12 91.08 12 138 C8.04 138 4.08 138 0 138 C0 92.46 0 46.92 0 0 Z M2 1 C2 44.89 2 88.78 2 134 C3.65 134.33 5.3 134.66 7 135 C8.485 134.01 8.485 134.01 10 133 C10.44776257 130.59736451 10.44776257 130.59736451 10.36076355 127.7482605 C10.36488754 126.63484283 10.36901154 125.52142517 10.3732605 124.37426758 C10.36247467 123.14716064 10.35168884 121.92005371 10.34057617 120.65576172 C10.34101425 119.36799835 10.34145233 118.08023499 10.34190369 116.75344849 C10.34276651 113.21636489 10.32509477 109.67958481 10.30418181 106.14257193 C10.28546253 102.44834515 10.28366834 98.75411186 10.28010559 95.05984497 C10.27077111 88.06164913 10.24613847 81.06359343 10.21605712 74.06545937 C10.18255664 66.09944164 10.16603808 58.13341732 10.15097082 50.16734672 C10.11959004 33.77814903 10.06680244 17.38909238 10 1 C7.36 1 4.72 1 2 1 Z " fill="#CA5F73" transform="translate(339,82)"/>
<path d="M0 0 C3.96 0 7.92 0 12 0 C12 45.54 12 91.08 12 138 C8.04 138 4.08 138 0 138 C0 92.46 0 46.92 0 0 Z M3 1 C1.75153504 2.02619432 1.75153504 2.02619432 1.87695217 4.21577549 C1.87787396 5.20301578 1.87879576 6.19025606 1.87974548 7.20741272 C1.87837082 8.33628403 1.87699615 9.46515533 1.87557983 10.62823486 C1.87917511 11.87763855 1.88277039 13.12704224 1.88647461 14.41430664 C1.88632858 15.72143112 1.88618256 17.0285556 1.8860321 18.37528992 C1.88574414 21.97017099 1.89164072 25.56501897 1.89860606 29.15989232 C1.90483974 32.91286252 1.90544341 36.6658334 1.90663147 40.41880798 C1.90974474 47.53030826 1.91795808 54.64179325 1.92798096 61.75328678 C1.93914222 69.84747066 1.94465258 77.94165526 1.94967639 86.03584492 C1.96014069 102.69057225 1.97774006 119.34528418 2 136 C4.64 136 7.28 136 10 136 C10 91.78 10 47.56 10 2 C7.69 1.67 5.38 1.34 3 1 Z " fill="#C64883" transform="translate(229,82)"/>
<path d="M0 0 C3.96 0 7.92 0 12 0 C12 11.55 12 23.1 12 35 C7.71 35 3.42 35 -1 35 C-1.0246519 30.17619198 -1.04283693 25.35242033 -1.05493164 20.52856445 C-1.05997174 18.88630536 -1.06680378 17.24405077 -1.07543945 15.60180664 C-1.08751926 13.24624521 -1.09323139 10.89074291 -1.09765625 8.53515625 C-1.10281754 7.79660904 -1.10797882 7.05806183 -1.11329651 6.2971344 C-1.1134925 4.53101912 -1.06194719 2.76502854 -1 1 C-0.67 0.67 -0.34 0.34 0 0 Z " fill="#D91C7D" transform="translate(211,135)"/>
<path d="M0 0 C3.96 0 7.92 0 12 0 C13.70492881 1.70492881 13.1280442 3.84534261 13.13894653 6.11901855 C13.1369223 6.83255493 13.13489807 7.54609131 13.1328125 8.28125 C13.13376923 9.00993286 13.13472595 9.73861572 13.13571167 10.48937988 C13.13639335 12.0327971 13.13453988 13.57621717 13.13037109 15.11962891 C13.12502262 17.489974 13.13031642 19.86012959 13.13671875 22.23046875 C13.13605797 23.72656292 13.1347768 25.22265697 13.1328125 26.71875 C13.13483673 27.43228638 13.13686096 28.14582275 13.13894653 28.88098145 C13.11495191 33.88504809 13.11495191 33.88504809 12 35 C8.04 35 4.08 35 0 35 C0 23.45 0 11.9 0 0 Z " fill="#D8636C" transform="translate(357,125)"/>
<path d="M0 0 C4.29 0 8.58 0 13 0 C13.02312343 10.54381312 13.04091509 21.08762025 13.05181217 31.63145351 C13.057041 36.52685374 13.06413864 41.42223668 13.07543945 46.31762695 C13.08626834 51.03787978 13.09227684 55.75811592 13.09487724 60.4783802 C13.09673149 62.28338954 13.10035209 64.08839792 13.10573006 65.89340019 C13.11294052 68.41259644 13.11399094 70.9317229 13.11352539 73.45092773 C13.11712067 74.20474228 13.12071594 74.95855682 13.12442017 75.73521423 C13.11405216 80.88594784 13.11405216 80.88594784 12 82 C8.04 82 4.08 82 0 82 C0 54.94 0 27.88 0 0 Z M2 2 C2 27.74 2 53.48 2 80 C4.97 80 7.94 80 11 80 C11.02514202 73.01554614 11.04306375 66.03111991 11.05493164 59.04663086 C11.05989087 56.68171733 11.06666031 54.31680674 11.07543945 51.9519043 C11.13209568 36.27146083 10.84842914 20.65879988 10 5 C9.34 4.67 8.68 4.34 8 4 C7.34 3.649375 6.68 3.29875 6 2.9375 C4.06631779 1.85852204 4.06631779 1.85852204 2 2 Z " fill="#D976A4" transform="translate(247,89)"/>
<path d="M0 0 C3.96 0 7.92 0 12 0 C12 27.06 12 54.12 12 82 C7.71 82 3.42 82 -1 82 C-1.02312343 71.45618688 -1.04091509 60.91237975 -1.05181217 50.36854649 C-1.057041 45.47314626 -1.06413864 40.57776332 -1.07543945 35.68237305 C-1.08626834 30.96212022 -1.09227684 26.24188408 -1.09487724 21.5216198 C-1.09673149 19.71661046 -1.10035209 17.91160208 -1.10573006 16.10659981 C-1.11294052 13.58740356 -1.11399094 11.0682771 -1.11352539 8.54907227 C-1.11712067 7.79525772 -1.12071594 7.04144318 -1.12442017 6.26478577 C-1.11405216 1.11405216 -1.11405216 1.11405216 0 0 Z M1 2 C0.97687608 12.15266151 0.95908466 22.3053168 0.94818783 32.45799923 C0.94295911 37.17179733 0.93586166 41.88557747 0.92456055 46.59936523 C0.91373127 51.14455404 0.90772308 55.68972552 0.90512276 60.23492622 C0.90326858 61.97294958 0.89964811 63.71097194 0.89426994 65.44898796 C0.88705897 67.87478595 0.88600908 70.30051146 0.88647461 72.72631836 C0.88287933 73.45208069 0.87928406 74.17784302 0.87557983 74.92559814 C0.591814 78.24599888 0.591814 78.24599888 2 81 C3.51928038 81.07179964 5.04167482 81.08392007 6.5625 81.0625 C7.38878906 81.05347656 8.21507812 81.04445313 9.06640625 81.03515625 C9.70449219 81.02355469 10.34257812 81.01195312 11 81 C11.10986295 54.64641249 11.10300627 28.33427463 10 2 C7.03 2 4.06 2 1 2 Z " fill="#DC8C9B" transform="translate(321,89)"/>
<path d="M0 0 C3.96 0 7.92 0 12 0 C12 22.11 12 44.22 12 67 C8.04 67 4.08 67 0 67 C-1.81415883 65.18584117 -1.12770573 62.37554299 -1.12939453 59.93554688 C-1.13254669 58.63750122 -1.13569885 57.33945557 -1.13894653 56.0020752 C-1.13715675 54.57429979 -1.1351058 53.14652469 -1.1328125 51.71875 C-1.13348558 50.26525862 -1.13445564 48.81176736 -1.13571167 47.35827637 C-1.13718846 44.30833873 -1.1350347 41.25843034 -1.13037109 38.20849609 C-1.1246738 34.29069441 -1.12795291 30.37296122 -1.13394356 26.45516205 C-1.13754969 23.45269246 -1.13641035 20.45023923 -1.13381577 17.44776917 C-1.13314664 16.00281262 -1.13397442 14.55785461 -1.13629532 13.11289978 C-1.13882265 11.09675117 -1.13429052 9.08059738 -1.12939453 7.06445312 C-1.12859894 5.91497192 -1.12780334 4.76549072 -1.12698364 3.58117676 C-1 1 -1 1 0 0 Z M1 2 C1 22.79 1 43.58 1 65 C3.97 65 6.94 65 10 65 C10.87979844 61.48080625 11.12654211 58.92218913 11.12939453 55.34521484 C11.13254669 54.21078949 11.13569885 53.07636414 11.13894653 51.90756226 C11.1369223 50.68767609 11.13489807 49.46778992 11.1328125 48.2109375 C11.13376923 46.95616608 11.13472595 45.70139465 11.13571167 44.40859985 C11.13639205 41.7573908 11.13504969 39.10627399 11.13037109 36.45507812 C11.12466242 33.05424005 11.12796317 29.65348071 11.13394356 26.25264549 C11.13842022 23.00957331 11.13528902 19.76651071 11.1328125 16.5234375 C11.13483673 15.29950287 11.13686096 14.07556824 11.13894653 12.81454468 C11.13579437 11.68642365 11.13264221 10.55830261 11.12939453 9.39599609 C11.12859894 8.39990326 11.12780334 7.40381042 11.12698364 6.37753296 C11.15758708 3.98277926 11.15758708 3.98277926 10 2 C7.03 2 4.06 2 1 2 Z " fill="#E287B2" transform="translate(266,119)"/>
<path d="M0 0 C1.50046875 0.00386719 1.50046875 0.00386719 3.03125 0.0078125 C4.0315625 0.00523437 5.031875 0.00265625 6.0625 0 C8.53125 0.1328125 8.53125 0.1328125 9.53125 1.1328125 C9.60450168 3.99548817 9.62363205 6.8335315 9.59375 9.6953125 C9.58923828 10.50162109 9.58472656 11.30792969 9.58007812 12.13867188 C9.56825518 14.13675006 9.55031914 16.13479033 9.53125 18.1328125 C7.55215602 18.15967803 5.57296029 18.17914625 3.59375 18.1953125 C2.49160156 18.20691406 1.38945312 18.21851563 0.25390625 18.23046875 C-2.46875 18.1328125 -2.46875 18.1328125 -3.46875 17.1328125 C-3.56856214 14.4554987 -3.60754875 11.80977075 -3.59375 9.1328125 C-3.59761719 8.38257813 -3.60148437 7.63234375 -3.60546875 6.859375 C-3.59343616 0.19331777 -3.59343616 0.19331777 0 0 Z " fill="#D34F52" transform="translate(378.46875,147.8671875)"/>
<path d="M0 0 C4.29 0 8.58 0 13 0 C13 5.61 13 11.22 13 17 C8.71 17 4.42 17 0 17 C0 11.39 0 5.78 0 0 Z " fill="#D81D7A" transform="translate(192,147)"/>
<path d="M0 0 C3.96 0 7.92 0 12 0 C12 5.94 12 11.88 12 18 C8.04 18 4.08 18 0 18 C0 12.06 0 6.12 0 0 Z " fill="#D85348" transform="translate(394,141)"/>
<path d="M0 0 C3.96 0 7.92 0 12 0 C12 5.94 12 11.88 12 18 C8.04 18 4.08 18 0 18 C0 12.06 0 6.12 0 0 Z " fill="#DE3E8E" transform="translate(174,136)"/>
<path d="M0 0 C3.96 0 7.92 0 12 0 C12 11.55 12 23.1 12 35 C7.71 35 3.42 35 -1 35 C-1.0246519 30.17619198 -1.04283693 25.35242033 -1.05493164 20.52856445 C-1.05997174 18.88630536 -1.06680378 17.24405077 -1.07543945 15.60180664 C-1.08751926 13.24624521 -1.09323139 10.89074291 -1.09765625 8.53515625 C-1.10281754 7.79660904 -1.10797882 7.05806183 -1.11329651 6.2971344 C-1.1134925 4.53101912 -1.06194719 2.76502854 -1 1 C-0.67 0.67 -0.34 0.34 0 0 Z M2 2 C2 12.23 2 22.46 2 33 C4.64 33 7.28 33 10 33 C10 22.77 10 12.54 10 2 C7.36 2 4.72 2 2 2 Z " fill="#D565A0" transform="translate(211,135)"/>
<path d="M0 0 C3.96 0 7.92 0 12 0 C12 4.29 12 8.58 12 13 C8.04 13 4.08 13 0 13 C0 8.71 0 4.42 0 0 Z " fill="#D94B46" transform="translate(412,151)"/>
<path d="M0 0 C3.96 0 7.92 0 12 0 C12 4.29 12 8.58 12 13 C8.04 13 4.08 13 0 13 C0 8.71 0 4.42 0 0 Z " fill="#DB1B77" transform="translate(156,146)"/>
<path d="M0 0 C4.29 0 8.58 0 13 0 C13 5.61 13 11.22 13 17 C8.71 17 4.42 17 0 17 C0 11.39 0 5.78 0 0 Z M2 2 C2 6.62 2 11.24 2 16 C4.97 16 7.94 16 11 16 C11 11.38 11 6.76 11 2 C8.03 2 5.06 2 2 2 Z " fill="#D96DA3" transform="translate(192,147)"/>
<path d="M0 0 C3.96 0 7.92 0 12 0 C12 5.94 12 11.88 12 18 C8.04 18 4.08 18 0 18 C0 12.06 0 6.12 0 0 Z M3 2 C0.69939466 3.8628949 0.69939466 3.8628949 0.8046875 6.8203125 C0.82789063 7.91085938 0.85109375 9.00140625 0.875 10.125 C0.89304687 11.22070312 0.91109375 12.31640625 0.9296875 13.4453125 C0.95289063 14.28835937 0.97609375 15.13140625 1 16 C3.97 16 6.94 16 10 16 C10 11.38 10 6.76 10 2 C7.69 2 5.38 2 3 2 Z " fill="#D6857F" transform="translate(394,141)"/>
<path d="M0 0 C3.96 0 7.92 0 12 0 C12 4.29 12 8.58 12 13 C8.04 13 4.08 13 0 13 C0 8.71 0 4.42 0 0 Z M2 2 C1.979375 3.299375 1.95875 4.59875 1.9375 5.9375 C1.92589844 6.66839844 1.91429687 7.39929688 1.90234375 8.15234375 C1.79438816 10.01732141 1.79438816 10.01732141 3 11 C5.67058851 11.14115161 8.32432238 11.04247107 11 11 C11 8.03 11 5.06 11 2 C8.03 2 5.06 2 2 2 Z " fill="#D38580" transform="translate(412,151)"/>
<path d="M0 0 C3.96 0 7.92 0 12 0 C12 4.29 12 8.58 12 13 C8.04 13 4.08 13 0 13 C0 8.71 0 4.42 0 0 Z M1 2 C1 4.97 1 7.94 1 11 C3.97 11 6.94 11 10 11 C10 8.03 10 5.06 10 2 C7.03 2 4.06 2 1 2 Z " fill="#D2679B" transform="translate(156,146)"/>
<path d="M0 0 C1.50046875 0.00386719 1.50046875 0.00386719 3.03125 0.0078125 C4.0315625 0.00523437 5.031875 0.00265625 6.0625 0 C8.53125 0.1328125 8.53125 0.1328125 9.53125 1.1328125 C9.60450168 3.99548817 9.62363205 6.8335315 9.59375 9.6953125 C9.58923828 10.50162109 9.58472656 11.30792969 9.58007812 12.13867188 C9.56825518 14.13675006 9.55031914 16.13479033 9.53125 18.1328125 C7.55215602 18.15967803 5.57296029 18.17914625 3.59375 18.1953125 C2.49160156 18.20691406 1.38945312 18.21851563 0.25390625 18.23046875 C-2.46875 18.1328125 -2.46875 18.1328125 -3.46875 17.1328125 C-3.56856214 14.4554987 -3.60754875 11.80977075 -3.59375 9.1328125 C-3.59761719 8.38257813 -3.60148437 7.63234375 -3.60546875 6.859375 C-3.59343616 0.19331777 -3.59343616 0.19331777 0 0 Z M-2.46875 3.1328125 C-2.54146741 5.48594805 -2.55245868 7.84114918 -2.53125 10.1953125 C-2.52222656 11.48566406 -2.51320313 12.77601563 -2.50390625 14.10546875 C-2.49230469 15.10449219 -2.48070312 16.10351562 -2.46875 17.1328125 C1.16125 17.1328125 4.79125 17.1328125 8.53125 17.1328125 C8.55810412 14.82037458 8.57757841 12.5078498 8.59375 10.1953125 C8.60535156 8.90753906 8.61695313 7.61976563 8.62890625 6.29296875 C8.89657549 3.26982847 8.89657549 3.26982847 7.53125 2.1328125 C6.03386876 2.0349068 4.53182108 2.00306386 3.03125 2.0078125 C2.2165625 2.00523437 1.401875 2.00265625 0.5625 2 C-1.46405377 1.9082947 -1.46405377 1.9082947 -2.46875 3.1328125 Z " fill="#EDB6B6" transform="translate(378.46875,147.8671875)"/>
<path d="M0 0 C3.63 0 7.26 0 11 0 C11 5.28 11 10.56 11 16 C7.37 16 3.74 16 0 16 C0 15.01 0 14.02 0 13 C2.97 13.33 5.94 13.66 9 14 C9.33 9.71 9.66 5.42 10 1 C7.03 1 4.06 1 1 1 C1 4.3 1 7.6 1 11 C0.67 11 0.34 11 0 11 C0 7.37 0 3.74 0 0 Z " fill="#BE3878" transform="translate(175,137)"/>
<path d="M0 0 C2.97 0 5.94 0 9 0 C8.67 0.99 8.34 1.98 8 3 C7.67 2.34 7.34 1.68 7 1 C5.68 1 4.36 1 3 1 C1.89210465 5.05308333 1.66268733 9.07111374 1.4375 13.25 C1.39431641 13.99507812 1.35113281 14.74015625 1.30664062 15.5078125 C1.20103275 17.338349 1.10005799 19.16915176 1 21 C0.67 21 0.34 21 0 21 C0 14.07 0 7.14 0 0 Z " fill="#D54859" transform="translate(322,91)"/>
<path d="M0 0 C1.99954746 -0.04254356 4.00041636 -0.04080783 6 0 C7 1 7 1 7.11352539 3.40844727 C7.10567017 4.97163696 7.10567017 4.97163696 7.09765625 6.56640625 C7.09282227 8.2534668 7.09282227 8.2534668 7.08789062 9.97460938 C7.07951172 11.15861328 7.07113281 12.34261719 7.0625 13.5625 C7.05798828 14.75037109 7.05347656 15.93824219 7.04882812 17.16210938 C7.03699675 20.10812226 7.02051287 23.05403681 7 26 C6.67 26 6.34 26 6 26 C6 18.41 6 10.82 6 3 C5.01 3.33 4.02 3.66 3 4 C3 3.34 3 2.68 3 2 C2.01 1.34 1.02 0.68 0 0 Z " fill="#D4336C" transform="translate(251,91)"/>
<path d="M0 0 C2.97 0 5.94 0 9 0 C9 2.97 9 5.94 9 9 C7.35 9 5.7 9 4 9 C4.66 7.68 5.32 6.36 6 5 C6.66 5.33 7.32 5.66 8 6 C8 4.35 8 2.7 8 1 C5.36 1 2.72 1 0 1 C0 0.67 0 0.34 0 0 Z " fill="#D22073" transform="translate(157,148)"/>
<path d="M0 0 C2.64 0 5.28 0 8 0 C7.67 0.66 7.34 1.32 7 2 C6.34 2 5.68 2 5 2 C5 2.66 5 3.32 5 4 C3.35 4.66 1.7 5.32 0 6 C0 4.02 0 2.04 0 0 Z " fill="#DB4E4F" transform="translate(341,83)"/>
<path d="M0 0 C0.33 0 0.66 0 1 0 C1 1.65 1 3.3 1 5 C-2.3 5 -5.6 5 -9 5 C-9 4.01 -9 3.02 -9 2 C-6.03 2.33 -3.06 2.66 0 3 C0 2.01 0 1.02 0 0 Z " fill="#C42972" transform="translate(184,148)"/>
</svg>
