<?xml version="1.0" encoding="UTF-8"?>
<svg version="1.1" xmlns="http://www.w3.org/2000/svg" width="315" height="71">
<path d="M0 0 C1.2065625 0.0309375 1.2065625 0.0309375 2.4375 0.0625 C3.50753808 3.27261424 3.42266495 5.05783805 3.1328125 8.39453125 C2.99939453 9.96364258 2.99939453 9.96364258 2.86328125 11.56445312 C2.76402344 12.65693359 2.66476563 13.74941406 2.5625 14.875 C2.42521484 16.49631836 2.42521484 16.49631836 2.28515625 18.15039062 C1.84769539 23.16886763 1.31007826 28.0981628 0.4375 33.0625 C2.4175 33.3925 4.3975 33.7225 6.4375 34.0625 C6.25 35.9375 6.25 35.9375 5.4375 38.0625 C3.7875 38.7225 2.1375 39.3825 0.4375 40.0625 C-0.2225 46.3325 -0.8825 52.6025 -1.5625 59.0625 C-4.0375 59.5575 -4.0375 59.5575 -6.5625 60.0625 C-9.34740859 56.14299902 -8.37364407 52.27637984 -7.6875 47.8125 C-7.58308594 47.06742188 -7.47867188 46.32234375 -7.37109375 45.5546875 C-7.11268787 43.72235489 -6.83907918 41.89217766 -6.5625 40.0625 C-11.5125 40.3925 -16.4625 40.7225 -21.5625 41.0625 C-21.65337891 43.31900391 -21.65337891 43.31900391 -21.74609375 45.62109375 C-21.83048043 47.58073989 -21.91512935 49.54037476 -22 51.5 C-22.03931641 52.49322266 -22.07863281 53.48644531 -22.11914062 54.50976562 C-22.18198242 55.92612305 -22.18198242 55.92612305 -22.24609375 57.37109375 C-22.28275146 58.24564209 -22.31940918 59.12019043 -22.35717773 60.02124023 C-22.5625 62.0625 -22.5625 62.0625 -23.5625 63.0625 C-25.22867115 63.10313832 -26.89638095 63.105221 -28.5625 63.0625 C-28.67058032 55.96522572 -28.50104006 49.10155044 -27.5625 42.0625 C-30.69110138 41.56192378 -33.45134381 41.3892662 -36.5625 42.0625 C-39.06830677 44.40125298 -40.71073786 47.1971994 -42.5625 50.0625 C-45.97526833 53.56507802 -48.782914 54.79493691 -53.5703125 55.15625 C-56.89991783 54.99956269 -58.8824623 53.9946202 -61.5625 52.0625 C-64.54254572 47.69176627 -65.17180906 44.28514906 -64.5625 39.0625 C-62.63357154 31.94383546 -59.48646977 26.55701999 -53.5625 22.0625 C-49.80052058 20.80850686 -46.49691902 20.62079807 -42.5625 21.0625 C-40.5 22.1875 -40.5 22.1875 -39.5625 24.0625 C-39.25 26.875 -39.25 26.875 -40.5625 30.0625 C-45.69763498 34.27194651 -50.9313566 36.77418942 -57.5625 37.0625 C-57.42207123 38.70880328 -57.27500671 40.35454179 -57.125 42 C-57.04378906 42.91652344 -56.96257812 43.83304688 -56.87890625 44.77734375 C-56.80205024 47.02409732 -56.80205024 47.02409732 -55.5625 48.0625 C-52.27506453 48.73173762 -52.27506453 48.73173762 -48.5625 48.0625 C-44.5675758 44.78721573 -42.19665956 40.45276594 -39.5625 36.0625 C-35.2725 36.0625 -30.9825 36.0625 -26.5625 36.0625 C-26.5625 27.4825 -26.5625 18.9025 -26.5625 10.0625 C-22.5625 9.0625 -22.5625 9.0625 -20.5625 10.0625 C-20.37798975 26.77092825 -20.37798975 26.77092825 -21.5625 35.0625 C-16.2825 35.0625 -11.0025 35.0625 -5.5625 35.0625 C-5.47162109 33.14050781 -5.47162109 33.14050781 -5.37890625 31.1796875 C-3.88533637 0.0947643 -3.88533637 0.0947643 0 0 Z M-54.5625 29.0625 C-54.8925 30.0525 -55.2225 31.0425 -55.5625 32.0625 C-51.60429141 31.49704163 -48.8965947 30.25347652 -45.5625 28.0625 C-45.8925 27.0725 -46.2225 26.0825 -46.5625 25.0625 C-49.91386681 25.0625 -51.95193167 27.11845975 -54.5625 29.0625 Z " fill="#EC672A" transform="translate(235.5625,2.9375)"/>
<path d="M0 0 C1.125 6.75 1.125 6.75 0 9 C-0.99 9 -1.98 9 -3 9 C-3.495 6.525 -3.495 6.525 -4 4 C-11.87969537 5.34122474 -17.11317683 10.09871836 -21.80078125 16.43359375 C-28.01604908 26.31941677 -30.16243153 35.2549126 -29 47 C-28.34 47.99 -27.68 48.98 -27 50 C-23.20720557 50.57856186 -20.57936018 50.94919044 -17.23657227 48.94018555 C-12.54721559 44.92945233 -9.58777488 40.63098988 -6.625 35.25 C-6.18800781 34.48300781 -5.75101563 33.71601562 -5.30078125 32.92578125 C-3.81464832 30.30779475 -2.34638638 27.69277276 -1 25 C-2.02480469 25.3609375 -3.04960938 25.721875 -4.10546875 26.09375 C-5.46600752 26.5629013 -6.82669241 27.03162901 -8.1875 27.5 C-8.86103516 27.73847656 -9.53457031 27.97695313 -10.22851562 28.22265625 C-13.93204467 29.48727592 -17.07940536 30.30451221 -21 30 C-21.33 28.68 -21.66 27.36 -22 26 C-17.24742214 23.86531574 -12.60542593 22.1821188 -7.5625 20.8125 C-6.32628906 20.46832031 -5.09007812 20.12414062 -3.81640625 19.76953125 C0.30638489 18.93822127 3.80791289 18.94639832 8 19 C7.99476318 20.00377686 7.98952637 21.00755371 7.98413086 22.04174805 C7.9659826 25.77839257 7.95453213 29.51503321 7.94506836 33.25170898 C7.94005058 34.86662451 7.93323489 36.48153552 7.92456055 38.09643555 C7.91238286 40.42237465 7.90674605 42.7482535 7.90234375 45.07421875 C7.89718246 45.79212082 7.89202118 46.51002289 7.88670349 47.24967957 C7.88629124 50.96290232 8.11055784 54.38991122 9 58 C6.6875 58.6875 6.6875 58.6875 4 59 C1.77508339 57.4019514 1.08382764 56.43977563 0.56762695 53.73168945 C0.54144287 52.86761475 0.51525879 52.00354004 0.48828125 51.11328125 C0.45283203 50.17548828 0.41738281 49.23769531 0.38085938 48.27148438 C0.34702148 46.80678711 0.34702148 46.80678711 0.3125 45.3125 C0.27833984 44.32443359 0.24417969 43.33636719 0.20898438 42.31835938 C0.12649462 39.87901947 0.05734932 37.44003937 0 35 C-0.36351562 35.71285156 -0.72703125 36.42570312 -1.1015625 37.16015625 C-9.29832725 52.77604396 -9.29832725 52.77604396 -17 56 C-21.4529714 57.07746756 -25.5020246 57.50324755 -29.875 55.9375 C-33.63364989 53.60713707 -34.37124703 52.06471783 -36 48 C-37.72999443 34.25355775 -34.03843815 22.12273097 -26 11 C-21.12802389 5.02753046 -15.72084765 1.46121475 -8.375 -0.8125 C-5.44428086 -1.04387256 -2.86783379 -0.60024428 0 0 Z " fill="#39507C" transform="translate(41,11)"/>
<path d="M0 0 C4.70588235 0.70588235 4.70588235 0.70588235 6 2 C6.1584265 4.0708472 6.25124422 6.14678029 6.31640625 8.22265625 C6.35830078 9.48271484 6.40019531 10.74277344 6.44335938 12.04101562 C6.48317596 13.38150736 6.52288814 14.7220022 6.5625 16.0625 C6.60568042 17.40691523 6.64929456 18.7513166 6.69335938 20.09570312 C6.79985358 23.3970234 6.9018646 26.69842236 7 30 C7.39904541 29.45077881 7.79809082 28.90155762 8.20922852 28.33569336 C8.73959717 27.61518799 9.26996582 26.89468262 9.81640625 26.15234375 C10.33920166 25.43812256 10.86199707 24.72390137 11.40063477 23.98803711 C14.57188409 20.0461224 17.78387702 18.31451456 22.625 17.0625 C26 17 26 17 28.4375 18 C30.22115921 20.28308379 30.69014653 21.87943052 30.51171875 24.77734375 C28.55656902 33.26955901 23.6894472 40.55158147 17 46 C16.47148437 46.4434375 15.94296875 46.886875 15.3984375 47.34375 C12.79445055 49.32010933 11.42337973 50.03681563 8.125 49.75 C7.42375 49.5025 6.7225 49.255 6 49 C6 48.34 6 47.68 6 47 C4.35 46.67 2.7 46.34 1 46 C0.68960539 39.60995082 0.38724408 33.21955852 0.09057617 26.82885742 C-0.01139485 24.65298772 -0.11523315 22.47720472 -0.22094727 20.30151367 C-0.372216 17.18168483 -0.5168574 14.06161001 -0.66015625 10.94140625 C-0.70906509 9.96224747 -0.75797394 8.98308868 -0.80836487 7.97425842 C-0.8484819 7.07340012 -0.88859894 6.17254181 -0.92993164 5.24438477 C-0.96768204 4.44718521 -1.00543243 3.64998566 -1.04432678 2.82862854 C-1 1 -1 1 0 0 Z M17.5625 25.0625 C11.62063149 31.84971503 11.62063149 31.84971503 8 40 C8.28739925 42.24240782 8.28739925 42.24240782 9 44 C15.38778398 40.26080938 21.0941693 34.94013935 24 28 C24.16750414 25.33290931 24.16750414 25.33290931 24 23 C19.97675587 22.56937184 19.97675587 22.56937184 17.5625 25.0625 Z " fill="#E7733D" transform="translate(280,8)"/>
<path d="M0 0 C3.875 0.875 3.875 0.875 5 2 C5.1326625 3.40499105 5.20326556 4.81597222 5.24609375 6.2265625 C5.27896484 7.09410156 5.31183594 7.96164063 5.34570312 8.85546875 C5.40612085 10.67828449 5.46349448 12.50120409 5.51757812 14.32421875 C5.7221179 19.56506809 6.31920409 24.02791171 8 29 C8.33 29.99 8.66 30.98 9 32 C8.67 32.66 8.34 33.32 8 34 C5.6875 34.3125 5.6875 34.3125 3 34 C0.03002505 30.1733015 -0.44681431 26.95307665 -0.6875 22.1875 C-0.75324219 21.02605469 -0.81898438 19.86460938 -0.88671875 18.66796875 C-0.92410156 17.78753906 -0.96148437 16.90710938 -1 16 C-1.42410156 16.79664062 -1.84820312 17.59328125 -2.28515625 18.4140625 C-9.25395468 31.0038478 -9.25395468 31.0038478 -15 34 C-17.875 34 -17.875 34 -20 33 C-23.49878302 26.00243395 -21.2535809 14.72320642 -19.0625 7.5625 C-17.24067164 2.24067164 -17.24067164 2.24067164 -16 1 C-14.33382885 0.95936168 -12.66611905 0.957279 -11 1 C-11.68450188 4.6418158 -12.58420383 8.17709226 -13.5625 11.75 C-14.90721429 17.02441333 -15.27112647 21.57747068 -15 27 C-8.29796409 18.91953118 -3.95438399 9.66627198 0 0 Z " fill="#E47C4D" transform="translate(268,24)"/>
<path d="M0 0 C2.0625 1.125 2.0625 1.125 3 3 C3.3125 5.8125 3.3125 5.8125 2 9 C-3.13513498 13.20944651 -8.3688566 15.71168942 -15 16 C-14.85957123 17.64630328 -14.71250671 19.29204179 -14.5625 20.9375 C-14.48128906 21.85402344 -14.40007812 22.77054688 -14.31640625 23.71484375 C-14.23955024 25.96159732 -14.23955024 25.96159732 -13 27 C-9.71256453 27.66923762 -9.71256453 27.66923762 -6 27 C-2.73474109 24.32294015 -0.50583213 21.09675751 1.25390625 17.28125 C3 15 3 15 6.13671875 14.51171875 C7.89435547 14.59873047 7.89435547 14.59873047 9.6875 14.6875 C10.86699219 14.73261719 12.04648438 14.77773438 13.26171875 14.82421875 C14.61716797 14.91123047 14.61716797 14.91123047 16 15 C16 15.33 16 15.66 16 16 C12.37 16 8.74 16 5 16 C5.12375 17.299375 5.12375 17.299375 5.25 18.625 C4.84267083 24.12394374 2.00481206 26.9723513 -1.75 30.8125 C-5.92816387 33.62472568 -7.9747247 34 -13 34 C-16.95924887 32.73005225 -18.53147838 31.68716504 -20.875 28.25 C-23.14715383 21.68600006 -21.99989546 16.65488938 -19.34375 10.44140625 C-14.92131702 2.4064626 -9.07704013 -1.01904401 0 0 Z M-12 8 C-12.33 8.99 -12.66 9.98 -13 11 C-9.04179141 10.43454163 -6.3340947 9.19097652 -3 7 C-3.33 6.01 -3.66 5.02 -4 4 C-7.35136681 4 -9.38943167 6.05595975 -12 8 Z " fill="#E83B8A" transform="translate(193,24)"/>
<path d="M0 0 C2.125 0.375 2.125 0.375 4 1 C4.75 2.75 4.75 2.75 5 5 C3.67235245 6.33899497 2.33813809 7.6714888 1 9 C-3.35530707 16.24196409 -5.24804719 24.25404775 -7.10546875 32.3984375 C-7.85803119 35.42840506 -8.75019482 38.14802165 -10 41 C-11.65 41 -13.3 41 -15 41 C-15.40839111 40.12674072 -15.81678223 39.25348145 -16.23754883 38.35375977 C-17.75356202 35.1191601 -19.28301976 31.89107406 -20.81665039 28.66479492 C-21.47887544 27.26680034 -22.13742744 25.86705974 -22.79223633 24.46557617 C-23.73341979 22.45282577 -24.68757974 20.44669831 -25.64453125 18.44140625 C-26.08065483 17.49763878 -26.08065483 17.49763878 -26.52558899 16.5348053 C-27.27380948 14.98386781 -28.12970076 13.48587356 -29 12 C-29.99 11.67 -30.98 11.34 -32 11 C-31.67 9.35 -31.34 7.7 -31 6 C-29.35 5.67 -27.7 5.34 -26 5 C-22.25408172 9.20889694 -20.09632049 13.66817805 -17.8125 18.75 C-17.11246809 20.28727517 -16.41073553 21.82377743 -15.70703125 23.359375 C-15.4025708 24.03452148 -15.09811035 24.70966797 -14.78442383 25.40527344 C-14.105412 27.00205433 -14.105412 27.00205433 -13 28 C-12.56300781 26.44152344 -12.56300781 26.44152344 -12.1171875 24.8515625 C-9.49680294 15.82374731 -6.83084715 6.83084715 0 0 Z " fill="#E54791" transform="translate(166,20)"/>
<path d="M0 0 C0.721875 0.268125 1.44375 0.53625 2.1875 0.8125 C2.1875 1.4725 2.1875 2.1325 2.1875 2.8125 C3.3321875 2.9053125 3.3321875 2.9053125 4.5 3 C7.1875 3.8125 7.1875 3.8125 8.75 6.0625 C9.224375 6.97 9.69875 7.8775 10.1875 8.8125 C11.30125 9.9571875 11.30125 9.9571875 12.4375 11.125 C14.42762157 14.18125813 14.65639929 16.09616054 13.99609375 19.68359375 C12.09064434 24.7003567 8.23389137 28.58466518 3.6875 31.3125 C-0.78712199 32.2074244 -4.37120483 32.42104685 -8.625 30.625 C-11.35915139 28.35956028 -12.06961331 27.30406743 -12.8125 23.8125 C-12.93113841 15.34468362 -10.56639414 8.34313351 -5.375 1.6875 C-2.8125 -0.1875 -2.8125 -0.1875 0 0 Z M-1.8125 6.8125 C-4.86706213 12.15443192 -6.70901824 16.60359442 -6.8125 22.8125 C-5.54177975 25.29259222 -5.54177975 25.29259222 -3.8125 26.8125 C0.07132414 26.54153553 1.91923064 26.02711548 5 23.5625 C7.8244779 20.08229152 7.8244779 20.08229152 8.1875 15.8125 C5.35072825 11.64077684 2.71884857 9.14290783 -1.8125 6.8125 Z " fill="#273F6E" transform="translate(91.8125,26.1875)"/>
<path d="M0 0 C0.721875 0.268125 1.44375 0.53625 2.1875 0.8125 C2.1875 1.4725 2.1875 2.1325 2.1875 2.8125 C3.3321875 2.9053125 3.3321875 2.9053125 4.5 3 C7.1875 3.8125 7.1875 3.8125 8.75 6.0625 C9.224375 6.97 9.69875 7.8775 10.1875 8.8125 C11.30125 9.9571875 11.30125 9.9571875 12.4375 11.125 C14.42762157 14.18125813 14.65639929 16.09616054 13.99609375 19.68359375 C12.09064434 24.7003567 8.23389137 28.58466518 3.6875 31.3125 C-0.78712199 32.2074244 -4.37120483 32.42104685 -8.625 30.625 C-11.35915139 28.35956028 -12.06961331 27.30406743 -12.8125 23.8125 C-12.93113841 15.34468362 -10.56639414 8.34313351 -5.375 1.6875 C-2.8125 -0.1875 -2.8125 -0.1875 0 0 Z M-1.8125 6.8125 C-4.86706213 12.15443192 -6.70901824 16.60359442 -6.8125 22.8125 C-5.54177975 25.29259222 -5.54177975 25.29259222 -3.8125 26.8125 C0.07132414 26.54153553 1.91923064 26.02711548 5 23.5625 C7.8244779 20.08229152 7.8244779 20.08229152 8.1875 15.8125 C5.35072825 11.64077684 2.71884857 9.14290783 -1.8125 6.8125 Z " fill="#2F4574" transform="translate(119.8125,26.1875)"/>
<path d="M0 0 C0.99 0.66 1.98 1.32 3 2 C3.1875 4.625 3.1875 4.625 3 7 C0.6875 7.625 0.6875 7.625 -2 8 C-2.99 7.34 -3.98 6.68 -5 6 C-11.51418626 15.10721186 -14.62579651 21.68930746 -14 33 C-15.32 33.66 -16.64 34.32 -18 35 C-21.06482653 31.93517347 -20.47373803 28.25014683 -20.625 24.125 C-20.66294678 23.27252686 -20.70089355 22.42005371 -20.73999023 21.54174805 C-21.01134536 15.0273792 -21.11711968 8.51966193 -21 2 C-19.35 1.67 -17.7 1.34 -16 1 C-15.34 3.31 -14.68 5.62 -14 8 C-13.59007812 7.50628906 -13.18015625 7.01257813 -12.7578125 6.50390625 C-12.21898437 5.86324219 -11.68015625 5.22257812 -11.125 4.5625 C-10.59132813 3.92441406 -10.05765625 3.28632813 -9.5078125 2.62890625 C-6.62946089 -0.48060831 -4.08326953 -0.24999609 0 0 Z " fill="#31456F" transform="translate(75,24)"/>
<path d="M0 0 C0.18451025 16.70842825 0.18451025 16.70842825 -1 25 C0.32 25.33 1.64 25.66 3 26 C1.02 26.33 -0.96 26.66 -3 27 C-3 18.75 -3 10.5 -3 2 C-3.28928623 10.18231621 -3.28928623 10.18231621 -3.56811523 18.36499023 C-3.60622314 19.37762939 -3.64433105 20.39026855 -3.68359375 21.43359375 C-3.73858032 22.99678345 -3.73858032 22.99678345 -3.79467773 24.59155273 C-4 27 -4 27 -5 28 C-6.51469448 28.23192865 -8.03754562 28.41215238 -9.5625 28.5625 C-10.80193359 28.68818359 -10.80193359 28.68818359 -12.06640625 28.81640625 C-12.70449219 28.87699219 -13.34257812 28.93757813 -14 29 C-12.04310341 29.22142255 -10.08438048 29.4267568 -8.125 29.625 C-7.03445312 29.74101563 -5.94390625 29.85703125 -4.8203125 29.9765625 C-3.42425781 29.98816406 -3.42425781 29.98816406 -2 30 C-1.34 29.34 -0.68 28.68 0 28 C0.99 27.67 1.98 27.34 3 27 C3 27.66 3 28.32 3 29 C6.96 29 10.92 29 15 29 C15 32.96 15 36.92 15 41 C14.67 41 14.34 41 14 41 C14 37.37 14 33.74 14 30 C9.05 30.33 4.1 30.66 -1 31 C-1.06058594 32.50433594 -1.12117187 34.00867187 -1.18359375 35.55859375 C-1.26798043 37.51823989 -1.35262935 39.47787476 -1.4375 41.4375 C-1.47681641 42.43072266 -1.51613281 43.42394531 -1.55664062 44.44726562 C-1.59853516 45.39150391 -1.64042969 46.33574219 -1.68359375 47.30859375 C-1.73858032 48.62041626 -1.73858032 48.62041626 -1.79467773 49.95874023 C-2 52 -2 52 -3 53 C-4.66617115 53.04063832 -6.33388095 53.042721 -8 53 C-8.10808032 45.90272572 -7.93854006 39.03905044 -7 32 C-9.97 32 -12.94 32 -16 32 C-16.33 30.35 -16.66 28.7 -17 27 C-13.37 27 -9.74 27 -6 27 C-6 18.09 -6 9.18 -6 0 C-3 -1 -3 -1 0 0 Z " fill="#E16E3C" transform="translate(215,13)"/>
<path d="M0 0 C4.70588235 0.70588235 4.70588235 0.70588235 6 2 C6.14688335 4.31625207 6.22759191 6.63674696 6.28125 8.95703125 C6.29965942 9.65640305 6.31806885 10.35577484 6.33703613 11.07633972 C6.39594972 13.32163859 6.44865546 15.56701606 6.5 17.8125 C6.56779851 20.75666597 6.64157416 23.70059797 6.71875 26.64453125 C6.74904297 27.95784424 6.77933594 29.27115723 6.81054688 30.62426758 C6.96152926 33.31451684 7.34082683 35.42943683 8 38 C7.72686657 40.34114367 7.40197001 42.67750658 7 45 C7.66 45 8.32 45 9 45 C9 46.32 9 47.64 9 49 C8.01 49 7.02 49 6 49 C6 48.34 6 47.68 6 47 C4.35 46.67 2.7 46.34 1 46 C0.68960539 39.60995082 0.38724408 33.21955852 0.09057617 26.82885742 C-0.01139485 24.65298772 -0.11523315 22.47720472 -0.22094727 20.30151367 C-0.372216 17.18168483 -0.5168574 14.06161001 -0.66015625 10.94140625 C-0.70906509 9.96224747 -0.75797394 8.98308868 -0.80836487 7.97425842 C-0.8484819 7.07340012 -0.88859894 6.17254181 -0.92993164 5.24438477 C-0.96768204 4.44718521 -1.00543243 3.64998566 -1.04432678 2.82862854 C-1 1 -1 1 0 0 Z " fill="#E67B49" transform="translate(280,8)"/>
<path d="M0 0 C3.69230769 0.69230769 3.69230769 0.69230769 5 2 C5.1326625 3.40499105 5.20326556 4.81597222 5.24609375 6.2265625 C5.27896484 7.09410156 5.31183594 7.96164063 5.34570312 8.85546875 C5.40612085 10.67828449 5.46349448 12.50120409 5.51757812 14.32421875 C5.7221179 19.56506809 6.31920409 24.02791171 8 29 C8.33 29.99 8.66 30.98 9 32 C8.67 32.66 8.34 33.32 8 34 C5.6875 34.3125 5.6875 34.3125 3 34 C-0.18765455 30.01543181 -0.52240605 26.11673369 -0.6875 21.1875 C-0.72166016 20.49462891 -0.75582031 19.80175781 -0.79101562 19.08789062 C-0.87286344 17.39247151 -0.93812365 15.69626542 -1 14 C-1.66 14 -2.32 14 -3 14 C-2.69249629 11.85344499 -2.3788634 9.70776715 -2.0625 7.5625 C-1.88847656 6.36753906 -1.71445312 5.17257813 -1.53515625 3.94140625 C-1 1 -1 1 0 0 Z " fill="#E07441" transform="translate(268,24)"/>
<path d="M0 0 C1.125 6.75 1.125 6.75 0 9 C-0.99 9 -1.98 9 -3 9 C-3.33 7.35 -3.66 5.7 -4 4 C-11.74253205 5.3178778 -17.1029906 10.03425627 -21.68359375 16.3046875 C-22.8581777 18.17470501 -23.96725599 20.04868468 -25 22 C-25.66 20.68 -26.32 19.36 -27 18 C-27.99 18.33 -28.98 18.66 -30 19 C-27.49563894 11.63190615 -21.67962693 5.02088123 -14.75 1.4375 C-9.46354425 -0.77737869 -5.67143188 -1.18704388 0 0 Z " fill="#334875" transform="translate(41,11)"/>
<path d="M0 0 C1.32 0.33 2.64 0.66 4 1 C4.75 2.75 4.75 2.75 5 5 C3.67235245 6.33899497 2.33813809 7.6714888 1 9 C-3.01089894 15.66928545 -4.96073782 22.99629859 -6.65625 30.51660156 C-7.45555132 34.03874022 -8.36363685 36.72727369 -10 40 C-10 35.71 -10 31.42 -10 27 C-10.66 27.99 -11.32 28.98 -12 30 C-11.42520748 18.69574712 -7.49552133 8.52583354 0 0 Z " fill="#E4468F" transform="translate(166,20)"/>
<path d="M0 0 C0.99 0 1.98 0 3 0 C2.67 1.32 2.34 2.64 2 4 C1.34 3.67 0.68 3.34 0 3 C0.04125 4.11375 0.0825 5.2275 0.125 6.375 C0.1558747 10.70517702 -0.69400755 14.61779511 -1.7578125 18.80078125 C-2.27032581 21.29049372 -2.27032581 21.29049372 0 24 C3.06556598 24.73343428 3.06556598 24.73343428 6 25 C4.68 25.33 3.36 25.66 2 26 C2 26.99 2 27.98 2 29 C-4.41868512 29.48442907 -4.41868512 29.48442907 -6.875 27.4375 C-10.30193268 20.01247919 -8.49774455 13.5262435 -6 6 C-4 3 -4 3 -1 2 C-0.67 1.34 -0.34 0.68 0 0 Z " fill="#264070" transform="translate(116,28)"/>
<path d="M0 0 C0.39475547 4.53968794 -0.03517111 7.40759395 -1.9375 11.5625 C-4.32534333 17.01922649 -4.59961025 22.18975515 -4.82421875 28.09375 C-5 31 -5 31 -6 33 C-7.32 32.34 -8.64 31.68 -10 31 C-10.52166068 20.39289956 -9.84855845 11.6971169 -5 2 C-1.44444444 0 -1.44444444 0 0 0 Z " fill="#1A3367" transform="translate(15,28)"/>
<path d="M0 0 C0.33 0 0.66 0 1 0 C1.04898437 0.90363281 1.09796875 1.80726562 1.1484375 2.73828125 C1.22320313 3.91777344 1.29796875 5.09726562 1.375 6.3125 C1.47941406 8.07013672 1.47941406 8.07013672 1.5859375 9.86328125 C1.78613747 13.15699887 1.78613747 13.15699887 4 16 C9.75507778 16.68161308 9.75507778 16.68161308 14.6875 14.0625 C15.450625 13.381875 16.21375 12.70125 17 12 C19.8125 11.25 19.8125 11.25 22 11 C22.41937454 15.48349511 22.41937454 15.48349511 20.56640625 17.765625 C15.5452732 21.48498282 11.34458318 23.48891949 5 23 C2.12859917 22.37222225 0.58780439 21.58437004 -2 20 C-3.4375 17.3125 -3.4375 17.3125 -4 15 C-3.01 15.33 -2.02 15.66 -1 16 C-0.67 10.72 -0.34 5.44 0 0 Z " fill="#253D6D" transform="translate(10,45)"/>
<path d="M0 0 C1.98 0 3.96 0 6 0 C6.06674969 8.26583611 5.87716443 16.493157 5.5 24.75 C5.45230469 25.84054688 5.40460937 26.93109375 5.35546875 28.0546875 C5.23930429 30.70323714 5.12078804 33.3516579 5 36 C4.34 36 3.68 36 3 36 C3 35.34 3 34.68 3 34 C2.34 34 1.68 34 1 34 C1 25.42 1 16.84 1 8 C0.34 8 -0.32 8 -1 8 C-1.125 2.25 -1.125 2.25 0 0 Z " fill="#041F5A" transform="translate(42,31)"/>
<path d="M0 0 C1.2065625 0.0309375 1.2065625 0.0309375 2.4375 0.0625 C3.50753808 3.27261424 3.42266495 5.05783805 3.1328125 8.39453125 C3.04386719 9.44060547 2.95492187 10.48667969 2.86328125 11.56445312 C2.76402344 12.65693359 2.66476563 13.74941406 2.5625 14.875 C2.47097656 15.95587891 2.37945312 17.03675781 2.28515625 18.15039062 C1.84769539 23.16886763 1.31007826 28.0981628 0.4375 33.0625 C2.4175 33.3925 4.3975 33.7225 6.4375 34.0625 C6.25 35.9375 6.25 35.9375 5.4375 38.0625 C3.7875 38.7225 2.1375 39.3825 0.4375 40.0625 C-0.2225 46.3325 -0.8825 52.6025 -1.5625 59.0625 C-4.0375 59.5575 -4.0375 59.5575 -6.5625 60.0625 C-6.5625 59.4025 -6.5625 58.7425 -6.5625 58.0625 C-5.2425 58.0625 -3.9225 58.0625 -2.5625 58.0625 C-2.58570313 56.83273438 -2.60890625 55.60296875 -2.6328125 54.3359375 C-2.65158039 52.7031311 -2.66977949 51.0703181 -2.6875 49.4375 C-2.70425781 48.62925781 -2.72101563 47.82101563 -2.73828125 46.98828125 C-2.76746485 43.39869821 -2.73712445 40.56742187 -1.5546875 37.1484375 C0.18459554 31.7388564 -0.4859502 26.09891257 -0.640625 20.46875 C-0.74664394 14.07227408 -0.08026842 8.27925233 1.4375 2.0625 C0.4475 2.3925 -0.5425 2.7225 -1.5625 3.0625 C-1.8925 6.0325 -2.2225 9.0025 -2.5625 12.0625 C-2.8925 12.0625 -3.2225 12.0625 -3.5625 12.0625 C-3.58937279 10.25007948 -3.60883715 8.43754767 -3.625 6.625 C-3.63660156 5.61566406 -3.64820313 4.60632813 -3.66015625 3.56640625 C-3.52706167 0.15386128 -3.42090834 0.08343679 0 0 Z " fill="#E37646" transform="translate(235.5625,2.9375)"/>
<path d="M0 0 C1.2065625 0.0309375 1.2065625 0.0309375 2.4375 0.0625 C1.75798175 3.65610612 0.88908106 7.15713428 -0.0625 10.6875 C-1.53256696 16.46737303 -2.22310754 22.11728039 -2.5625 28.0625 C-1.5725 28.0625 -0.5825 28.0625 0.4375 28.0625 C0.4375 28.7225 0.4375 29.3825 0.4375 30.0625 C-1.5425 30.0625 -3.5225 30.0625 -5.5625 30.0625 C-5.62146868 26.91674793 -5.65641603 23.7711414 -5.6875 20.625 C-5.70425781 19.74650391 -5.72101563 18.86800781 -5.73828125 17.96289062 C-5.78137295 12.12396471 -5.3158476 6.66208253 -3.5625 1.0625 C-2.5625 0.0625 -2.5625 0.0625 0 0 Z " fill="#E86328" transform="translate(254.5625,24.9375)"/>
<path d="M0 0 C0.99 0.66 1.98 1.32 3 2 C3.1875 4.625 3.1875 4.625 3 7 C0.6875 7.625 0.6875 7.625 -2 8 C-2.99 7.34 -3.98 6.68 -5 6 C-5.40992187 6.62648438 -5.81984375 7.25296875 -6.2421875 7.8984375 C-6.78101562 8.71570312 -7.31984375 9.53296875 -7.875 10.375 C-8.40867187 11.18710937 -8.94234375 11.99921875 -9.4921875 12.8359375 C-11 15 -11 15 -13 17 C-13 16.01 -13 15.02 -13 14 C-13.66 14 -14.32 14 -15 14 C-14.71334273 8.123526 -12.08745753 4.93566865 -8 1 C-5.22899606 -0.38550197 -3.0665294 -0.1877467 0 0 Z " fill="#4D618B" transform="translate(75,24)"/>
<path d="M0 0 C0 0.66 0 1.32 0 2 C0.78375 2.061875 1.5675 2.12375 2.375 2.1875 C5 3 5 3 6.3125 5 C7.23683482 9.03346104 7.16150412 12.88164486 7 17 C6.46375 16.278125 5.9275 15.55625 5.375 14.8125 C2.74080395 11.69305731 0.30779472 9.39287278 -3 7 C-3.99 7.33 -4.98 7.66 -6 8 C-6.33 7.01 -6.66 6.02 -7 5 C-8.32 6.32 -9.64 7.64 -11 9 C-11.33 8.34 -11.66 7.68 -12 7 C-11.21366078 5.85050412 -10.42073742 4.70551011 -9.625 3.5625 C-9.18414062 2.92441406 -8.74328125 2.28632813 -8.2890625 1.62890625 C-5.70336501 -1.63847512 -3.75298661 -0.88886525 0 0 Z " fill="#425881" transform="translate(94,27)"/>
<path d="M0 0 C0 0.66 0 1.32 0 2 C1.1446875 2.0928125 1.1446875 2.0928125 2.3125 2.1875 C5 3 5 3 6.625 5.375 C7.305625 6.674375 7.305625 6.674375 8 8 C9.58245275 9.75149165 9.58245275 9.75149165 11 11 C10 13 10 13 8 14 C7.34 13.67 6.68 13.34 6 13 C5.67 13.66 5.34 14.32 5 15 C4.4225 14.236875 3.845 13.47375 3.25 12.6875 C1.28296907 10.33799083 -0.48476744 8.70676495 -3 7 C-3.99 7.66 -4.98 8.32 -6 9 C-6 7.35 -6 5.7 -6 4 C-5.34 4 -4.68 4 -4 4 C-3.67 3.01 -3.34 2.02 -3 1 C-3.99 1 -4.98 1 -6 1 C-6.33 1.99 -6.66 2.98 -7 4 C-7.66 4 -8.32 4 -9 4 C-6.73455663 -1.01633889 -5.27613404 -1.24961069 0 0 Z " fill="#394E7C" transform="translate(122,27)"/>
<path d="M0 0 C0.33 0 0.66 0 1 0 C1 2.64 1 5.28 1 8 C1.66 8 2.32 8 3 8 C2.855625 9.134375 2.71125 10.26875 2.5625 11.4375 C1.99698633 15.95353056 1.49225191 20.47547181 1 25 C0.01 25 -0.98 25 -2 25 C-3.03387512 16.9874678 -3.10466648 9.07094823 -3 1 C-2.34 1.66 -1.68 2.32 -1 3 C-0.67 2.01 -0.34 1.02 0 0 Z " fill="#102D64" transform="translate(59,30)"/>
<path d="M0 0 C2 1 2 1 2.7109375 2.75390625 C3.06831688 5.5308406 2.51387623 7.29125838 1.625 9.9375 C0.5194562 13.27996186 -0.36762814 16.53435423 -1 20 C-1.33 19.34 -1.66 18.68 -2 18 C-2.99 18.33 -3.98 18.66 -5 19 C-6.44203141 10.05245573 -6.44203141 10.05245573 -4.6875 5.875 C-4.130625 5.25625 -3.57375 4.6375 -3 4 C-2.34 4 -1.68 4 -1 4 C-0.67 2.68 -0.34 1.36 0 0 Z " fill="#2D4577" transform="translate(86,31)"/>
<path d="M0 0 C2 2 2 2 2.25 5.375 C2.02515633 8.63523324 1.7239511 10.30632641 0 13 C-0.66 13 -1.32 13 -2 13 C-3.4783226 10.04335481 -3.06032783 7.25770263 -3 4 C-5.64 4.33 -8.28 4.66 -11 5 C-11 3.68 -11 2.36 -11 1 C-6.94214651 -1.02892674 -4.3831949 -1.16885197 0 0 Z " fill="#E7733D" transform="translate(308,26)"/>
<path d="M0 0 C0.33 0 0.66 0 1 0 C1.09038099 5.15171623 0.84681133 9.91913204 0 15 C-1.65 15 -3.3 15 -5 15 C-6.43023178 10.32790951 -7.40380045 5.86896303 -8 1 C-7.34 1 -6.68 1 -6 1 C-6 1.66 -6 2.32 -6 3 C-2.75016865 1.91215032 -2.75016865 1.91215032 0 0 Z " fill="#E73182" transform="translate(156,46)"/>
<path d="M0 0 C0.99 0 1.98 0 3 0 C3 6.6 3 13.2 3 20 C1.35 20 -0.3 20 -2 20 C-2.21133202 12.95559921 -2.07965362 6.75887425 0 0 Z " fill="#E96426" transform="translate(209,46)"/>
<path d="M0 0 C0.99 0 1.98 0 3 0 C3 0.66 3 1.32 3 2 C6.96 2 10.92 2 15 2 C15 5.96 15 9.92 15 14 C14.67 14 14.34 14 14 14 C14 10.37 14 6.74 14 3 C9.05 3.33 4.1 3.66 -1 4 C-1.33 10.93 -1.66 17.86 -2 25 C-2.33 25 -2.66 25 -3 25 C-3 18.73 -3 12.46 -3 6 C-3.99 6 -4.98 6 -6 6 C-6 7.65 -6 9.3 -6 11 C-6.33 11 -6.66 11 -7 11 C-7 9.02 -7 7.04 -7 5 C-9.97 5 -12.94 5 -16 5 C-16 4.67 -16 4.34 -16 4 C-15.01257813 3.95101562 -14.02515625 3.90203125 -13.0078125 3.8515625 C-11.72648438 3.77679688 -10.44515625 3.70203125 -9.125 3.625 C-7.21074219 3.52058594 -7.21074219 3.52058594 -5.2578125 3.4140625 C-1.91938301 3.32758894 -1.91938301 3.32758894 0 1 C0 0.67 0 0.34 0 0 Z " fill="#E07B4F" transform="translate(215,40)"/>
<path d="M0 0 C0.33 0 0.66 0 1 0 C0.98428955 0.74161377 0.9685791 1.48322754 0.95239258 2.24731445 C0.89009286 5.60229896 0.85102493 8.95716186 0.8125 12.3125 C0.78736328 13.47974609 0.76222656 14.64699219 0.73632812 15.84960938 C0.72666016 16.96787109 0.71699219 18.08613281 0.70703125 19.23828125 C0.6913208 20.26993408 0.67561035 21.30158691 0.65942383 22.36450195 C0.77122287 25.05377054 0.77122287 25.05377054 2.51831055 26.86010742 C3.00726807 27.23627197 3.49622559 27.61243652 4 28 C0.39494135 30.40337243 -0.90246946 30.13664135 -5.125 29.75 C-6.20007813 29.66234375 -7.27515625 29.5746875 -8.3828125 29.484375 C-9.24648437 29.32453125 -10.11015625 29.1646875 -11 29 C-11.33 28.34 -11.66 27.68 -12 27 C-8.7 26.67 -5.4 26.34 -2 26 C-1.97494385 25.2479126 -1.9498877 24.4958252 -1.92407227 23.72094727 C-1.80849486 20.33460804 -1.68559655 16.94857387 -1.5625 13.5625 C-1.52318359 12.37849609 -1.48386719 11.19449219 -1.44335938 9.97460938 C-1.40146484 8.84990234 -1.35957031 7.72519531 -1.31640625 6.56640625 C-1.27974854 5.52427979 -1.24309082 4.48215332 -1.20532227 3.40844727 C-1 1 -1 1 0 0 Z " fill="#F2540C" transform="translate(212,14)"/>
<path d="M0 0 C0.99 0.495 0.99 0.495 2 1 C2.44624295 3.25454769 2.78292741 5.53128164 3.0625 7.8125 C3.61364179 12.55367805 3.61364179 12.55367805 4.5859375 17.21484375 C5.27840731 20.20030323 4.51555375 23.02124498 4 26 C2.68 26 1.36 26 0 26 C0 17.42 0 8.84 0 0 Z " fill="#F05510" transform="translate(283,27)"/>
<path d="M0 0 C0.99 0 1.98 0 3 0 C3 7.59 3 15.18 3 23 C2.34 22.67 1.68 22.34 1 22 C0.3671875 19.71484375 0.3671875 19.71484375 -0.125 16.9375 C-0.29257812 16.01839844 -0.46015625 15.09929688 -0.6328125 14.15234375 C-0.75398438 13.44207031 -0.87515625 12.73179688 -1 12 C-1.66 12 -2.32 12 -3 12 C-2.14285714 3.42857143 -2.14285714 3.42857143 0 0 Z " fill="#F2540C" transform="translate(268,26)"/>
<path d="M0 0 C0.66 0 1.32 0 2 0 C2 7.59 2 15.18 2 23 C2.66 23 3.32 23 4 23 C4 23.66 4 24.32 4 25 C4.66 25 5.32 25 6 25 C5.82597656 24.20335938 5.65195312 23.40671875 5.47265625 22.5859375 C4.8917471 18.17870942 5.13078431 14.04593644 5.4375 9.625 C5.48970703 8.79355469 5.54191406 7.96210937 5.59570312 7.10546875 C5.72438731 5.06991892 5.86135407 3.03489559 6 1 C6.33 1 6.66 1 7 1 C7.02505615 1.60996826 7.0501123 2.21993652 7.07592773 2.84838867 C7.1924058 5.62827898 7.31489632 8.4078734 7.4375 11.1875 C7.47681641 12.14720703 7.51613281 13.10691406 7.55664062 14.09570312 C7.59853516 15.02705078 7.64042969 15.95839844 7.68359375 16.91796875 C7.72025146 17.77156982 7.75690918 18.6251709 7.79467773 19.50463867 C8.00531094 22.06454594 8.44841536 24.49333243 9 27 C6.6875 27.6875 6.6875 27.6875 4 28 C2.36401367 26.87963867 2.36401367 26.87963867 1 25 C0.56762695 22.36450195 0.56762695 22.36450195 0.48828125 19.23828125 C0.45283203 18.12001953 0.41738281 17.00175781 0.38085938 15.84960938 C0.35830078 14.68236328 0.33574219 13.51511719 0.3125 12.3125 C0.27833984 11.13365234 0.24417969 9.95480469 0.20898438 8.74023438 C0.12642075 5.82691775 0.05729678 2.91390534 0 0 Z " fill="#5C6F94" transform="translate(41,42)"/>
<path d="M0 0 C1.65 0 3.3 0 5 0 C5.07347656 0.95712891 5.07347656 0.95712891 5.1484375 1.93359375 C5.22320312 2.75988281 5.29796875 3.58617187 5.375 4.4375 C5.44460938 5.26121094 5.51421875 6.08492187 5.5859375 6.93359375 C5.72257812 7.61550781 5.85921875 8.29742187 6 9 C6.66 9.33 7.32 9.66 8 10 C7.04737966 11.48285242 6.08771595 12.96118201 5.125 14.4375 C4.59132813 15.26121094 4.05765625 16.08492187 3.5078125 16.93359375 C2 19 2 19 0 20 C-0.33 18.68 -0.66 17.36 -1 16 C-1.99 16 -2.98 16 -4 16 C-3.236875 15.195625 -2.47375 14.39125 -1.6875 13.5625 C1.48243973 9.80720208 2.72055873 5.6808827 4 1 C2.68 0.67 1.36 0.34 0 0 Z " fill="#EC8354" transform="translate(300,30)"/>
<path d="M0 0 C0 1.32 0 2.64 0 4 C-9.41002278 7.44419134 -9.41002278 7.44419134 -14 7 C-14.33 5.68 -14.66 4.36 -15 3 C-9.63560356 0.31780178 -5.98993047 -0.3152595 0 0 Z " fill="#2D4273" transform="translate(34,34)"/>
<path d="M0 0 C0.37851209 5.93002267 -0.89424625 10.47239641 -3 16 C-6 15 -6 15 -7.375 12.375 C-8.19515081 7.94618563 -7.22604797 5.85848314 -5 2 C-2.04347826 0 -2.04347826 0 0 0 Z " fill="#263E71" transform="translate(15,28)"/>
<path d="M0 0 C1.75763672 0.08701172 1.75763672 0.08701172 3.55078125 0.17578125 C4.73027344 0.22089844 5.90976563 0.26601563 7.125 0.3125 C8.48044922 0.39951172 8.48044922 0.39951172 9.86328125 0.48828125 C9.86328125 0.81828125 9.86328125 1.14828125 9.86328125 1.48828125 C6.23328125 1.48828125 2.60328125 1.48828125 -1.13671875 1.48828125 C-1.01296875 2.78765625 -1.01296875 2.78765625 -0.88671875 4.11328125 C-1.19575202 8.28523044 -2.5703589 10.24259085 -5.13671875 13.48828125 C-6.12671875 13.98328125 -6.12671875 13.98328125 -7.13671875 14.48828125 C-7.13671875 13.49828125 -7.13671875 12.50828125 -7.13671875 11.48828125 C-8.78671875 12.14828125 -10.43671875 12.80828125 -12.13671875 13.48828125 C-11.73839844 12.96878906 -11.34007812 12.44929688 -10.9296875 11.9140625 C-10.39988281 11.21667969 -9.87007812 10.51929688 -9.32421875 9.80078125 C-8.80214844 9.11628906 -8.28007812 8.43179688 -7.7421875 7.7265625 C-6.03589226 5.49354789 -6.03589226 5.49354789 -4.85546875 2.73828125 C-3.13671875 0.48828125 -3.13671875 0.48828125 0 0 Z " fill="#E44A8F" transform="translate(199.13671875,38.51171875)"/>
<path d="M0 0 C0.99 0 1.98 0 3 0 C2.72323476 4.45939098 2.42608193 8.91719 2.125 13.375 C2.04636719 14.64601563 1.96773437 15.91703125 1.88671875 17.2265625 C1.76103516 19.04414062 1.76103516 19.04414062 1.6328125 20.8984375 C1.55949707 22.01911621 1.48618164 23.13979492 1.41064453 24.29443359 C1 27 1 27 -1 29 C-1.02465881 25.03069011 -1.04284023 21.06140966 -1.05493164 17.09204102 C-1.05997057 15.74079614 -1.06680177 14.38955674 -1.07543945 13.03833008 C-1.08752419 11.09979566 -1.09269828 9.161222 -1.09765625 7.22265625 C-1.10289307 6.05484619 -1.10812988 4.88703613 -1.11352539 3.68383789 C-1 1 -1 1 0 0 Z " fill="#F4540C" transform="translate(234,5)"/>
<path d="M0 0 C0.99 0.33 1.98 0.66 3 1 C3.433125 2.155 3.86625 3.31 4.3125 4.5 C5.1478125 6.2325 5.1478125 6.2325 6 8 C9.08369887 9.05749557 9.08369887 9.05749557 12 9 C10.68 9.33 9.36 9.66 8 10 C8 10.99 8 11.98 8 13 C5.69 13 3.38 13 1 13 C0.15560662 9.01928836 -0.53343967 5.04352289 -1 1 C-0.67 0.67 -0.34 0.34 0 0 Z " fill="#283E6F" transform="translate(110,44)"/>
<path d="M0 0 C3.16115776 1.36983503 3.9927092 1.9890638 6 5 C5.96856707 7.73990408 5.44521663 10.28417854 5 13 C4.34 13 3.68 13 3 13 C2.67 13.66 2.34 14.32 2 15 C1.01 15 0.02 15 -1 15 C-1.042721 13.33388095 -1.04063832 11.66617115 -1 10 C-0.67 9.67 -0.34 9.34 0 9 C0.07179964 7.48071962 0.08392007 5.95832518 0.0625 4.4375 C0.05347656 3.61121094 0.04445313 2.78492188 0.03515625 1.93359375 C0.02355469 1.29550781 0.01195313 0.65742187 0 0 Z " fill="#243C6F" transform="translate(100,35)"/>
<path d="M0 0 C-0.125 2.3125 -0.125 2.3125 -1 5 C-4.55199049 7.59901743 -7.10630875 8.21066109 -11.375 7.6875 C-13.169375 7.3471875 -13.169375 7.3471875 -15 7 C-15 6.34 -15 5.68 -15 5 C-13.68 5 -12.36 5 -11 5 C-11 4.34 -11 3.68 -11 3 C-9.54293274 2.49632243 -8.08429904 1.99717444 -6.625 1.5 C-5.81289062 1.2215625 -5.00078125 0.943125 -4.1640625 0.65625 C-2 0 -2 0 0 0 Z " fill="#DF4087" transform="translate(192,50)"/>
<path d="M0 0 C-0.66 2.31 -1.32 4.62 -2 7 C-3.32 7.33 -4.64 7.66 -6 8 C-6.33 7.01 -6.66 6.02 -7 5 C-8.32 6.32 -9.64 7.64 -11 9 C-11.33 8.34 -11.66 7.68 -12 7 C-11.21366078 5.85050412 -10.42073742 4.70551011 -9.625 3.5625 C-9.18414062 2.92441406 -8.74328125 2.28632813 -8.2890625 1.62890625 C-5.70336501 -1.63847512 -3.75298661 -0.88886525 0 0 Z " fill="#51688D" transform="translate(94,27)"/>
<path d="M0 0 C3.0916909 2.52956528 3.90931332 5.22454612 5 9 C4.34 9 3.68 9 3 9 C3 8.34 3 7.68 3 7 C2.34 7 1.68 7 1 7 C1.25561323 9.3431213 1.59270772 11.67843403 2 14 C2.66 14.33 3.32 14.66 4 15 C3.34 15.66 2.68 16.32 2 17 C0.02 12.71 -1.96 8.42 -4 4 C-3.34 3.34 -2.68 2.68 -2 2 C-1.67 2.66 -1.34 3.32 -1 4 C-0.67 2.68 -0.34 1.36 0 0 Z " fill="#E3448D" transform="translate(147,40)"/>
<path d="M0 0 C0.375 2.6875 0.375 2.6875 0 6 C-1.80800879 8.33977608 -3.42587563 9.36642107 -6 11 C-8.375 10.8125 -8.375 10.8125 -10 10 C-10 9.34 -10 8.68 -10 8 C-9.34 8 -8.68 8 -8 8 C-7.773125 7.236875 -7.54625 6.47375 -7.3125 5.6875 C-5.91375822 2.82340969 -3.54030919 0 0 0 Z " fill="#EA743F" transform="translate(300,45)"/>
<path d="M0 0 C0.99 0 1.98 0 3 0 C3.26618595 6.95041086 2.6120509 13.23514355 1 20 C0.67 20 0.34 20 0 20 C0 15.71 0 11.42 0 7 C-0.66 7.99 -1.32 8.98 -2 10 C-1.85950482 8.52031676 -1.71245174 7.04125484 -1.5625 5.5625 C-1.48128906 4.73878906 -1.40007812 3.91507813 -1.31640625 3.06640625 C-1 1 -1 1 0 0 Z " fill="#E13984" transform="translate(156,40)"/>
<path d="M0 0 C0.33 0 0.66 0 1 0 C1.309375 1.093125 1.61875 2.18625 1.9375 3.3125 C2.58337897 5.55407994 3.2623117 7.7869351 4 10 C3.67 10.66 3.34 11.32 3 12 C1.35 12 -0.3 12 -2 12 C-2.66 10.68 -3.32 9.36 -4 8 C-3.2884375 7.13375 -3.2884375 7.13375 -2.5625 6.25 C-1.0515133 4.07417916 -0.45963849 2.57397552 0 0 Z " fill="#EB7A45" transform="translate(273,46)"/>
<path d="M0 0 C2.97 0.495 2.97 0.495 6 1 C7.125 7.75 7.125 7.75 6 10 C5.01 10 4.02 10 3 10 C2.67 8.35 2.34 6.7 2 5 C0.68 4.67 -0.64 4.34 -2 4 C-0.68 4 0.64 4 2 4 C2 3.34 2 2.68 2 2 C1.34 2 0.68 2 0 2 C0 1.34 0 0.68 0 0 Z " fill="#364772" transform="translate(35,10)"/>
<path d="M0 0 C0.33 0 0.66 0 1 0 C1 8.25 1 16.5 1 25 C2.98 25 4.96 25 7 25 C7 26.32 7 27.64 7 29 C6.01 29 5.02 29 4 29 C4 28.34 4 27.68 4 27 C2.68 27 1.36 27 0 27 C0 18.09 0 9.18 0 0 Z " fill="#E3591E" transform="translate(282,28)"/>
<path d="M0 0 C0.33 0 0.66 0 1 0 C1 2.64 1 5.28 1 8 C1.66 8 2.32 8 3 8 C3 8.99 3 9.98 3 11 C2.38125 11.12375 1.7625 11.2475 1.125 11.375 C-1.19120832 11.87197356 -1.19120832 11.87197356 -3 14 C-3 9.71 -3 5.42 -3 1 C-2.34 1.66 -1.68 2.32 -1 3 C-0.67 2.01 -0.34 1.02 0 0 Z " fill="#031E5B" transform="translate(59,30)"/>
<path d="M0 0 C0.33 0 0.66 0 1 0 C1.04898437 0.89203125 1.09796875 1.7840625 1.1484375 2.703125 C1.22320313 3.87359375 1.29796875 5.0440625 1.375 6.25 C1.47941406 7.99023438 1.47941406 7.99023438 1.5859375 9.765625 C1.96248308 12.70694334 2.4774123 14.49949011 4 17 C3.01 17 2.02 17 1 17 C1.33 17.99 1.66 18.98 2 20 C1.34 20.33 0.68 20.66 0 21 C-1.32 19.68 -2.64 18.36 -4 17 C-3.67 16.34 -3.34 15.68 -3 15 C-2.34 15.33 -1.68 15.66 -1 16 C-0.67 10.72 -0.34 5.44 0 0 Z " fill="#52678E" transform="translate(10,45)"/>
<path d="M0 0 C0.99 0 1.98 0 3 0 C3 0.66 3 1.32 3 2 C6.96 2 10.92 2 15 2 C15 5.96 15 9.92 15 14 C14.67 14 14.34 14 14 14 C14 10.37 14 6.74 14 3 C9.05 3.33 4.1 3.66 -1 4 C-1 5.65 -1 7.3 -1 9 C-1.33 9 -1.66 9 -2 9 C-2.125 6.125 -2.125 6.125 -2 3 C-1.34 2.34 -0.68 1.68 0 1 C0 0.67 0 0.34 0 0 Z " fill="#EB8F66" transform="translate(215,40)"/>
<path d="M0 0 C0.66 0 1.32 0 2 0 C2.33 0.99 2.66 1.98 3 3 C4.32 3 5.64 3 7 3 C7.66 4.32 8.32 5.64 9 7 C8.01 7.33 7.02 7.66 6 8 C6 8.99 6 9.98 6 11 C3.17621961 9.96461386 2.1756855 9.33380245 0.75 6.625 C0 4 0 4 0 0 Z " fill="#415783" transform="translate(79,46)"/>
<path d="M0 0 C0.93423645 3.01031744 1.04449911 3.86650268 0 7 C0.66 7 1.32 7 2 7 C2.33 6.34 2.66 5.68 3 5 C2.29445932 8.66881155 0.72264494 11.70450534 -1 15 C-1.66 14.01 -2.32 13.02 -3 12 C-3.66 12 -4.32 12 -5 12 C-3.41037341 7.96479403 -1.71767682 3.98188718 0 0 Z " fill="#E98656" transform="translate(265,31)"/>
<path d="M0 0 C1.625 2 1.625 2 3 4 C-1.55426184 6.66590937 -4.73946963 7.31563182 -10 7 C-8.68 6.67 -7.36 6.34 -6 6 C-6 5.01 -6 4.02 -6 3 C-2.66666667 0 -2.66666667 0 0 0 Z " fill="#455987" transform="translate(124,51)"/>
<path d="M0 0 C0.66 0.99 1.32 1.98 2 3 C2.66 3 3.32 3 4 3 C2.8141763 6.37503669 1.72426311 8.64722731 -1 11 C-1.33 10.01 -1.66 9.02 -2 8 C-2.99 7.67 -3.98 7.34 -5 7 C-3.35 4.69 -1.7 2.38 0 0 Z " fill="#455B84" transform="translate(33,49)"/>
<path d="M0 0 C0.66 0 1.32 0 2 0 C2 0.66 2 1.32 2 2 C2.66 2 3.32 2 4 2 C4.99 5.3 5.98 8.6 7 12 C4.625 11.625 4.625 11.625 2 10 C0.91991217 6.72174346 0.42269769 3.41943506 0 0 Z " fill="#EF1171" transform="translate(148,47)"/>
<path d="M0 0 C1.2065625 0.0309375 1.2065625 0.0309375 2.4375 0.0625 C3.57979879 3.48939636 3.34611076 5.67352218 3 9.25 C2.89816406 10.33667969 2.79632813 11.42335938 2.69140625 12.54296875 C2.56572266 13.79013672 2.56572266 13.79013672 2.4375 15.0625 C2.1075 15.0625 1.7775 15.0625 1.4375 15.0625 C1.4375 10.7725 1.4375 6.4825 1.4375 2.0625 C0.4475 2.3925 -0.5425 2.7225 -1.5625 3.0625 C-1.8925 6.0325 -2.2225 9.0025 -2.5625 12.0625 C-2.8925 12.0625 -3.2225 12.0625 -3.5625 12.0625 C-3.58937279 10.25007948 -3.60883715 8.43754767 -3.625 6.625 C-3.63660156 5.61566406 -3.64820313 4.60632813 -3.66015625 3.56640625 C-3.52706167 0.15386128 -3.42090834 0.08343679 0 0 Z " fill="#E98D66" transform="translate(235.5625,2.9375)"/>
<path d="M0 0 C0.33 0 0.66 0 1 0 C1 1.98 1 3.96 1 6 C1.66 6 2.32 6 3 6 C3 5.01 3 4.02 3 3 C3.66 3 4.32 3 5 3 C4.01 6.63 3.02 10.26 2 14 C1.67 14 1.34 14 1 14 C1 12.02 1 10.04 1 8 C0.01 8 -0.98 8 -2 8 C-1.47731534 5.23723823 -0.89130413 2.6739124 0 0 Z " fill="#E54E93" transform="translate(158,32)"/>
<path d="M0 0 C-0.33 0.99 -0.66 1.98 -1 3 C-4.64741582 4.7812961 -6.4071654 5.15369786 -10.375 4.125 C-11.24125 3.75375 -12.1075 3.3825 -13 3 C-12.67 2.34 -12.34 1.68 -12 1 C-8.01624339 -0.17169312 -4.12560776 -0.08089427 0 0 Z " fill="#E1468D" transform="translate(192,33)"/>
<path d="M0 0 C-1.47692308 6.64615385 -1.47692308 6.64615385 -4.125 8.4375 C-4.74375 8.623125 -5.3625 8.80875 -6 9 C-6 7.35 -6 5.7 -6 4 C-5.34 4 -4.68 4 -4 4 C-3.67 3.01 -3.34 2.02 -3 1 C-3.99 1 -4.98 1 -6 1 C-6.33 1.99 -6.66 2.98 -7 4 C-7.66 4 -8.32 4 -9 4 C-6.73455663 -1.01633889 -5.27613404 -1.24961069 0 0 Z " fill="#586C8D" transform="translate(122,27)"/>
<path d="M0 0 C1.47968324 0.14049518 2.95874516 0.28754826 4.4375 0.4375 C5.67306641 0.55931641 5.67306641 0.55931641 6.93359375 0.68359375 C9 1 9 1 10 2 C10.04063832 3.66617115 10.042721 5.33388095 10 7 C8.68 7 7.36 7 6 7 C5.67 5.35 5.34 3.7 5 2 C3.02 2 1.04 2 -1 2 C-0.67 1.34 -0.34 0.68 0 0 Z " fill="#E71E77" transform="translate(184,25)"/>
<path d="M0 0 C0.99 0.33 1.98 0.66 3 1 C3 2.65 3 4.3 3 6 C1.68 6.33 0.36 6.66 -1 7 C-1.66 6.01 -2.32 5.02 -3 4 C-5.56282742 3.27034634 -5.56282742 3.27034634 -8 3 C-8 2.67 -8 2.34 -8 2 C-6.865625 1.855625 -5.73125 1.71125 -4.5625 1.5625 C-1.19222799 1.38828522 -1.19222799 1.38828522 0 0 Z " fill="#425583" transform="translate(23,60)"/>
<path d="M0 0 C0.66 0.33 1.32 0.66 2 1 C1.67 3.64 1.34 6.28 1 9 C-0.32 9.33 -1.64 9.66 -3 10 C-3.75 8.375 -3.75 8.375 -4 6 C-2.0625 2.75 -2.0625 2.75 0 0 Z " fill="#173560" transform="translate(128,44)"/>
<path d="M0 0 C3.0390625 -0.29296875 3.0390625 -0.29296875 6.625 -0.1875 C7.81351563 -0.16042969 9.00203125 -0.13335937 10.2265625 -0.10546875 C11.14179688 -0.07066406 12.05703125 -0.03585938 13 0 C13 0.33 13 0.66 13 1 C9.37 1 5.74 1 2 1 C2.061875 2.423125 2.061875 2.423125 2.125 3.875 C2 7 2 7 0 9 C-1.125 6.1875 -1.125 6.1875 -2 3 C-1.34 2.01 -0.68 1.02 0 0 Z " fill="#EB698B" transform="translate(196,39)"/>
<path d="M0 0 C3.3 0.66 6.6 1.32 10 2 C7 4 7 4 3 4 C3 6.97 3 9.94 3 13 C2.67 13 2.34 13 2 13 C2 10.03 2 7.06 2 4 C1.01 4 0.02 4 -1 4 C-0.67 2.68 -0.34 1.36 0 0 Z " fill="#F14794" transform="translate(175,36)"/>
<path d="M0 0 C2.31 0.66 4.62 1.32 7 2 C6.443125 2.4125 5.88625 2.825 5.3125 3.25 C2.83804044 5.12256399 0.4164771 7.05339344 -2 9 C-2 7.68 -2 6.36 -2 5 C-2.66 4.67 -3.32 4.34 -4 4 C-2.68 2.68 -1.36 1.36 0 0 Z " fill="#DF4489" transform="translate(182,25)"/>
<path d="M0 0 C0.33 0.66 0.66 1.32 1 2 C1.99 2 2.98 2 4 2 C4.66 6.62 5.32 11.24 6 16 C5.01 16 4.02 16 3 16 C2.1276588 13.00519083 1.89170234 10.36424089 1.9375 7.25 C1.94652344 6.45078125 1.95554688 5.6515625 1.96484375 4.828125 C1.97644531 4.22484375 1.98804688 3.6215625 2 3 C1.34 3 0.68 3 0 3 C0 2.01 0 1.02 0 0 Z " fill="#E21770" transform="translate(173,38)"/>
<path d="M0 0 C1.0326802 2.78823655 1.04509293 3.8677274 0.0625 6.75 C-0.288125 7.4925 -0.63875 8.235 -1 9 C-2.32 8.01 -3.64 7.02 -5 6 C-4.625 3.5625 -4.625 3.5625 -4 1 C-2 0 -2 0 0 0 Z " fill="#E62B7F" transform="translate(147,36)"/>
<path d="M0 0 C5.625 -0.25 5.625 -0.25 9 2 C9.1875 4.625 9.1875 4.625 9 7 C7.35 7.33 5.7 7.66 4 8 C3.67 7.34 3.34 6.68 3 6 C3.66 6 4.32 6 5 6 C5 4.35 5 2.7 5 1 C3.35 1 1.7 1 0 1 C0 0.67 0 0.34 0 0 Z " fill="#4D5E88" transform="translate(69,24)"/>
<path d="M0 0 C0 2.64 0 5.28 0 8 C-0.66 8 -1.32 8 -2 8 C-2 8.99 -2 9.98 -2 11 C-2.66 11 -3.32 11 -4 11 C-4.3682455 3.51234156 -4.3682455 3.51234156 -2.5625 1 C-1 0 -1 0 0 0 Z " fill="#E6247A" transform="translate(163,27)"/>
<path d="M0 0 C0.33 0 0.66 0 1 0 C1 3.3 1 6.6 1 10 C-0.98 10.99 -0.98 10.99 -3 12 C-5 10 -5 10 -5.1953125 8.0546875 C-5.13020833 6.03645833 -5.06510417 4.01822917 -5 2 C-4.67 2 -4.34 2 -4 2 C-4 3.98 -4 5.96 -4 8 C-2.68 8 -1.36 8 0 8 C0 5.36 0 2.72 0 0 Z " fill="#5C6B8C" transform="translate(60,47)"/>
<path d="M0 0 C0.33 0 0.66 0 1 0 C1.25 6.625 1.25 6.625 -1 10 C-2.32 10 -3.64 10 -5 10 C-4.34 7.69 -3.68 5.38 -3 3 C-2.01 3 -1.02 3 0 3 C0 2.01 0 1.02 0 0 Z " fill="#E5682F" transform="translate(262,40)"/>
<path d="M0 0 C2.05078125 0.03255208 4.1015625 0.06510417 6.15234375 0.09765625 C6.15234375 0.75765625 6.15234375 1.41765625 6.15234375 2.09765625 C5.49234375 2.09765625 4.83234375 2.09765625 4.15234375 2.09765625 C3.82234375 3.08765625 3.49234375 4.07765625 3.15234375 5.09765625 C1.50234375 5.09765625 -0.14765625 5.09765625 -1.84765625 5.09765625 C-2.41015625 3.16015625 -2.41015625 3.16015625 -2.84765625 1.09765625 C-1.84765625 0.09765625 -1.84765625 0.09765625 0 0 Z " fill="#384E7B" transform="translate(21.84765625,35.90234375)"/>
<path d="M0 0 C1.134375 0.020625 2.26875 0.04125 3.4375 0.0625 C3.4375 1.7125 3.4375 3.3625 3.4375 5.0625 C2.7775 5.0625 2.1175 5.0625 1.4375 5.0625 C1.4375 4.4025 1.4375 3.7425 1.4375 3.0625 C0.1175 2.7325 -1.2025 2.4025 -2.5625 2.0625 C-2.5625 3.0525 -2.5625 4.0425 -2.5625 5.0625 C-3.5525 5.0625 -4.5425 5.0625 -5.5625 5.0625 C-4.43693182 0.07784091 -4.43693182 0.07784091 0 0 Z " fill="#193364" transform="translate(70.5625,24.9375)"/>
<path d="M0 0 C1.04293785 3.38954801 1.30754089 6.46327974 1 10 C0.01 10.66 -0.98 11.32 -2 12 C-2.33 10.68 -2.66 9.36 -3 8 C-3.99 8 -4.98 8 -6 8 C-4.73046875 6.50260417 -3.4609375 5.00520833 -2.19140625 3.5078125 C-0.9121848 1.99405921 -0.9121848 1.99405921 0 0 Z " fill="#E98455" transform="translate(302,38)"/>
<path d="M0 0 C1.91595968 -0.08133791 3.83291932 -0.13934367 5.75 -0.1875 C7.35101563 -0.23970703 7.35101563 -0.23970703 8.984375 -0.29296875 C12 0 12 0 16 3 C12.04 3 8.08 3 4 3 C4 2.34 4 1.68 4 1 C2.68 0.67 1.36 0.34 0 0 Z " fill="#E15922" transform="translate(214,39)"/>
<path d="M0 0 C-0.33 1.32 -0.66 2.64 -1 4 C-1.66 3.67 -2.32 3.34 -3 3 C-3 4.65 -3 6.3 -3 8 C-4.65 8.66 -6.3 9.32 -8 10 C-8 9.01 -8 8.02 -8 7 C-7.34 7 -6.68 7 -6 7 C-6 5.68 -6 4.36 -6 3 C-3.97652323 0.30203097 -3.48244715 0 0 0 Z " fill="#051F5D" transform="translate(119,28)"/>
<path d="M0 0 C0.99 0 1.98 0 3 0 C2.67 3.3 2.34 6.6 2 10 C1.67 9.34 1.34 8.68 1 8 C0.34 8 -0.32 8 -1 8 C-1.04241723 5.66705225 -1.04092937 3.33297433 -1 1 C-0.67 0.67 -0.34 0.34 0 0 Z " fill="#EC5615" transform="translate(234,5)"/>
<path d="M0 0 C0 0.99 0 1.98 0 3 C-3.3 3.33 -6.6 3.66 -10 4 C-10 3.01 -10 2.02 -10 1 C-6.61981469 -0.04005702 -3.5219721 -0.08004482 0 0 Z " fill="#EC5616" transform="translate(307,27)"/>
<path d="M0 0 C0.33 1.32 0.66 2.64 1 4 C0.34 4 -0.32 4 -1 4 C-0.67 5.32 -0.34 6.64 0 8 C-0.99 8.33 -1.98 8.66 -3 9 C-2.5020163 5.26512223 -2.12508244 3.18762365 0 0 Z M1 5 C1.99 5 2.98 5 4 5 C3.67 6.65 3.34 8.3 3 10 C2.67 9.01 2.34 8.02 2 7 C1.34 6.67 0.68 6.34 0 6 C0.33 5.67 0.66 5.34 1 5 Z " fill="#4B5E89" transform="translate(112,31)"/>
<path d="M0 0 C1.98 0 3.96 0 6 0 C6 1.32 6 2.64 6 4 C5.34 4 4.68 4 4 4 C3.67 4.66 3.34 5.32 3 6 C2.01 5.34 1.02 4.68 0 4 C0 2.68 0 1.36 0 0 Z " fill="#1C3265" transform="translate(120,31)"/>
<path d="M0 0 C-0.33 0.99 -0.66 1.98 -1 3 C-1.66 3 -2.32 3 -3 3 C-3 3.66 -3 4.32 -3 5 C-4.32 4.34 -5.64 3.68 -7 3 C-7 2.01 -7 1.02 -7 0 C-4.3333581 -1.33332095 -2.83319697 -0.67102033 0 0 Z " fill="#3B4D7A" transform="translate(94,27)"/>
<path d="M0 0 C0.66 0.33 1.32 0.66 2 1 C1.67 1.33 1.34 1.66 1 2 C2.32 2.66 3.64 3.32 5 4 C3.35 5.32 1.7 6.64 0 8 C0 7.01 0 6.02 0 5 C-1.32 4.67 -2.64 4.34 -4 4 C-2.68 2.68 -1.36 1.36 0 0 Z " fill="#4C5F88" transform="translate(22,15)"/>
<path d="M0 0 C0.99 0 1.98 0 3 0 C3 3.3 3 6.6 3 10 C2.01 10.495 2.01 10.495 1 11 C-0.17571451 7.32589215 -0.07366746 3.83070817 0 0 Z " fill="#ED560F" transform="translate(281,10)"/>
<path d="M0 0 C0.66 0.66 1.32 1.32 2 2 C4.10820797 1.6814823 4.10820797 1.6814823 6 1 C5.67 1.99 5.34 2.98 5 4 C4.34 4 3.68 4 3 4 C3 4.66 3 5.32 3 6 C3.99 6 4.98 6 6 6 C6 6.66 6 7.32 6 8 C4.02 8.33 2.04 8.66 0 9 C0.66 8.67 1.32 8.34 2 8 C2 6.68 2 5.36 2 4 C1.34 4 0.68 4 0 4 C0 2.68 0 1.36 0 0 Z " fill="#EE8B5C" transform="translate(287,49)"/>
<path d="M0 0 C0 0.66 0 1.32 0 2 C-3.96 2.66 -7.92 3.32 -12 4 C-12 3.34 -12 2.68 -12 2 C-10.68 2 -9.36 2 -8 2 C-8 1.34 -8 0.68 -8 0 C-4.71303767 -0.79953138 -3.28976808 -1.09658936 0 0 Z " fill="#DF2175" transform="translate(189,53)"/>
<path d="M0 0 C0.66 0 1.32 0 2 0 C2.33 1.98 2.66 3.96 3 6 C3.99 6.33 4.98 6.66 6 7 C6 7.66 6 8.32 6 9 C4.02 9 2.04 9 0 9 C0 6.03 0 3.06 0 0 Z " fill="#F5530D" transform="translate(249,46)"/>
<path d="M0 0 C2.475 0.495 2.475 0.495 5 1 C4.67 3.97 4.34 6.94 4 10 C2.4375 8.3125 2.4375 8.3125 1 6 C1.3125 3.25 1.3125 3.25 2 1 C1.34 0.67 0.68 0.34 0 0 Z " fill="#273C72" transform="translate(55,25)"/>
<path d="M0 0 C0.99 0 1.98 0 3 0 C3 0.99 3 1.98 3 3 C2.34 3 1.68 3 1 3 C0.34 5.97 -0.32 8.94 -1 12 C-1.66 12 -2.32 12 -3 12 C-2.14285714 3.42857143 -2.14285714 3.42857143 0 0 Z " fill="#EC581B" transform="translate(268,26)"/>
<path d="M0 0 C0.99 0.33 1.98 0.66 3 1 C3.125 3.875 3.125 3.875 3 7 C2.34 7.66 1.68 8.32 1 9 C-1.09230769 4.56923077 -1.09230769 4.56923077 -0.625 1.6875 C-0.41875 1.130625 -0.2125 0.57375 0 0 Z " fill="#041F5C" transform="translate(110,44)"/>
<path d="M0 0 C2.475 0.99 2.475 0.99 5 2 C4.67 2.99 4.34 3.98 4 5 C1.69 5 -0.62 5 -3 5 C-2.01 3.35 -1.02 1.7 0 0 Z " fill="#304470" transform="translate(25,13)"/>
<path d="M0 0 C0 0.66 0 1.32 0 2 C0.99 2 1.98 2 3 2 C2.67 2.99 2.34 3.98 2 5 C0.35 5.33 -1.3 5.66 -3 6 C-2.67 4.68 -2.34 3.36 -2 2 C-2.66 1.67 -3.32 1.34 -4 1 C-2 0 -2 0 0 0 Z " fill="#3D5680" transform="translate(96,51)"/>
<path d="M0 0 C0.66 0.33 1.32 0.66 2 1 C2.625 3.0625 2.625 3.0625 3 5 C-0.465 6.485 -0.465 6.485 -4 8 C-3.67 6.68 -3.34 5.36 -3 4 C-2.34 4 -1.68 4 -1 4 C-0.67 2.68 -0.34 1.36 0 0 Z " fill="#0C285F" transform="translate(86,31)"/>
<path d="M0 0 C0.66 0 1.32 0 2 0 C2.54466387 4.084979 3 7.8725485 3 12 C0.13700494 9.13700494 0.00578775 7.34147716 -0.0625 3.3125 C-0.041875 2.219375 -0.02125 1.12625 0 0 Z " fill="#E75798" transform="translate(171,42)"/>
<path d="M0 0 C2.7972908 2.06756277 3.02692273 3.14440371 3.6875 6.6875 C3.790625 7.780625 3.89375 8.87375 4 10 C3.01 9.67 2.02 9.34 1 9 C-1.26415094 3.79245283 -1.26415094 3.79245283 0 0 Z " fill="#2F4578" transform="translate(8,34)"/>
<path d="M0 0 C0.99 0.33 1.98 0.66 3 1 C2.625 2.9375 2.625 2.9375 2 5 C1.01 5.495 1.01 5.495 0 6 C-0.99 5.67 -1.98 5.34 -3 5 C-3 4.34 -3 3.68 -3 3 C-2.34 3 -1.68 3 -1 3 C-0.67 2.01 -0.34 1.02 0 0 Z " fill="#E85F1F" transform="translate(293,50)"/>
<path d="M0 0 C1.88391785 3.26545761 2.49287967 6.28111761 3 10 C2.01 10.495 2.01 10.495 1 11 C-1.03684712 6.92630576 -1.0257259 4.41062136 0 0 Z " fill="#405279" transform="translate(108,44)"/>
<path d="M0 0 C2.97 0.495 2.97 0.495 6 1 C5.67 1.66 5.34 2.32 5 3 C4.67 3 4.34 3 4 3 C3.67 4.65 3.34 6.3 3 8 C2.67 7.01 2.34 6.02 2 5 C-0.01508358 4.26676204 -0.01508358 4.26676204 -2 4 C-0.68 4 0.64 4 2 4 C2 3.34 2 2.68 2 2 C1.34 2 0.68 2 0 2 C0 1.34 0 0.68 0 0 Z " fill="#64769A" transform="translate(35,10)"/>
<path d="M0 0 C2.4375 0.8125 2.4375 0.8125 5 2 C5.33 2.99 5.66 3.98 6 5 C5.01 5.495 5.01 5.495 4 6 C2.62437146 4.71034824 1.29233607 3.37310707 0 2 C0 1.34 0 0.68 0 0 Z M6 0 C6.66 0.66 7.32 1.32 8 2 C7.01 1.67 6.02 1.34 5 1 C5.33 0.67 5.66 0.34 6 0 Z " fill="#425781" transform="translate(6,60)"/>
<path d="M0 0 C1.98 0 3.96 0 6 0 C6 1.32 6 2.64 6 4 C3.03 3.505 3.03 3.505 0 3 C0 2.01 0 1.02 0 0 Z " fill="#072056" transform="translate(92,31)"/>
<path d="M0 0 C1.65 0 3.3 0 5 0 C4.67 1.65 4.34 3.3 4 5 C3.67 4.01 3.34 3.02 3 2 C2.01 2 1.02 2 0 2 C0 2.99 0 3.98 0 5 C-0.66 5 -1.32 5 -2 5 C-1.34 3.35 -0.68 1.7 0 0 Z " fill="#E0875F" transform="translate(252,25)"/>
<path d="M0 0 C1.4540625 0.0309375 1.4540625 0.0309375 2.9375 0.0625 C2.9375 1.3825 2.9375 2.7025 2.9375 4.0625 C1.9475 4.0625 0.9575 4.0625 -0.0625 4.0625 C-0.0625 3.4025 -0.0625 2.7425 -0.0625 2.0625 C-1.3825 1.7325 -2.7025 1.4025 -4.0625 1.0625 C-3.0625 0.0625 -3.0625 0.0625 0 0 Z " fill="#E46E38" transform="translate(286.0625,52.9375)"/>
<path d="M0 0 C0 3 0 3 -1 5 C-0.01 5 0.98 5 2 5 C1.34 6.32 0.68 7.64 0 9 C-0.99 7.68 -1.98 6.36 -3 5 C-2.01 3.35 -1.02 1.7 0 0 Z " fill="#EB865A" transform="translate(258,45)"/>
<path d="M0 0 C1.32 0.33 2.64 0.66 4 1 C2.49336217 4.01327566 -0.03166411 4.61056618 -3 6 C-3.33 5.01 -3.66 4.02 -4 3 C-2.68 3 -1.36 3 0 3 C0 2.01 0 1.02 0 0 Z " fill="#394E7F" transform="translate(68,27)"/>
<path d="M0 0 C0.66 0.33 1.32 0.66 2 1 C2.125 3.875 2.125 3.875 2 7 C1.34 7.66 0.68 8.32 0 9 C-0.84454356 5.62182575 -1.10844919 3.32534757 0 0 Z " fill="#F0652E" transform="translate(303,38)"/>
<path d="M0 0 C0.66 0 1.32 0 2 0 C2 0.66 2 1.32 2 2 C1.34 2 0.68 2 0 2 C0 4.64 0 7.28 0 10 C-2 7 -2 7 -3 4 C-1.6875 1.8125 -1.6875 1.8125 0 0 Z " fill="#E97F4F" transform="translate(293,30)"/>
<path d="M0 0 C1.65 0.33 3.3 0.66 5 1 C5 1.99 5 2.98 5 4 C2.03 3.505 2.03 3.505 -1 3 C-0.67 2.01 -0.34 1.02 0 0 Z " fill="#E6136F" transform="translate(136,27)"/>
<path d="M0 0 C1.5625 1.6875 1.5625 1.6875 3 4 C2.6875 6.75 2.6875 6.75 2 9 C-0.37783838 6.62216162 -0.59009208 5.27926335 -1 2 C-0.67 1.34 -0.34 0.68 0 0 Z " fill="#F42F8B" transform="translate(153,48)"/>
<path d="M0 0 C0.66 0.33 1.32 0.66 2 1 C1.67 2.65 1.34 4.3 1 6 C0.01 6 -0.98 6 -2 6 C-1.125 1.125 -1.125 1.125 0 0 Z " fill="#22376C" transform="translate(128,44)"/>
<path d="M0 0 C0.33 0 0.66 0 1 0 C1 2.64 1 5.28 1 8 C0.67 7.34 0.34 6.68 0 6 C-0.99 6.33 -1.98 6.66 -3 7 C-2.67 5.68 -2.34 4.36 -2 3 C-1.34 3 -0.68 3 0 3 C0 2.01 0 1.02 0 0 Z " fill="#061E55" transform="translate(84,43)"/>
<path d="M0 0 C1.32 0.33 2.64 0.66 4 1 C4 2.65 4 4.3 4 6 C3.34 6 2.68 6 2 6 C1.34 5.34 0.68 4.68 0 4 C0 2.68 0 1.36 0 0 Z " fill="#132D5F" transform="translate(9,34)"/>
<path d="M0 0 C1.32 0 2.64 0 4 0 C3.67 1.65 3.34 3.3 3 5 C2.34 5 1.68 5 1 5 C0.67 3.35 0.34 1.7 0 0 Z " fill="#193268" transform="translate(18,20)"/>
</svg>
